<svg width="801" height="150" viewBox="0 0 801 150" fill="none" xmlns="http://www.w3.org/2000/svg">
<mask id="path-1-outside-1_585_255" maskUnits="userSpaceOnUse" x="0.384766" y="0.678223" width="801" height="150" fill="black">
<rect fill="white" x="0.384766" y="0.678223" width="801" height="150"/>
<path d="M112.084 143.459C112.084 144.134 111.536 144.682 110.86 144.682H64.8531C64.1773 144.682 63.6294 144.134 63.6294 143.459V143.459C63.6294 142.783 64.1773 142.235 64.8531 142.235H71.3232C76.9025 142.235 80.6267 136.482 78.343 131.392L60.9258 92.5691C56.8434 83.4693 44.1737 82.8138 39.1739 91.4436L34.9321 98.7651C33.8522 100.629 33.2835 102.745 33.2835 104.899V132.446C33.2835 137.852 37.6662 142.235 43.0725 142.235H51.6379C52.3137 142.235 52.8615 142.783 52.8615 143.459V143.459C52.8615 144.134 52.3137 144.682 51.6379 144.682H6.6084C5.9326 144.682 5.38477 144.134 5.38477 143.459V143.459C5.38477 142.783 5.9326 142.235 6.6084 142.235H15.1738C20.5801 142.235 24.9628 137.852 24.9628 132.446V19.8723C24.9628 14.466 20.5801 10.0833 15.1738 10.0833H6.60839C5.9326 10.0833 5.38477 9.53545 5.38477 8.85966V8.85966C5.38477 8.18387 5.9326 7.63603 6.60839 7.63603H51.6379C52.3137 7.63603 52.8615 8.18387 52.8615 8.85966V8.85966C52.8615 9.53545 52.3137 10.0833 51.6379 10.0833H43.0725C37.6662 10.0833 33.2835 14.466 33.2835 19.8723V50.8429C33.2835 63.3591 49.8515 67.8022 56.1141 56.9654L77.0736 20.6973C79.7991 15.9811 76.3956 10.0833 70.9485 10.0833H65.0978C64.422 10.0833 63.8742 9.53545 63.8742 8.85966V8.85966C63.8742 8.18387 64.422 7.63603 65.0978 7.63603H110.86C111.536 7.63603 112.084 8.18387 112.084 8.85966V8.85966C112.084 9.53545 111.536 10.0833 110.86 10.0833H93.4483C89.0795 10.0833 85.0421 12.4126 82.8553 16.1947L59.6705 56.293C57.7002 59.7006 57.4895 63.848 59.1044 67.4378L89.6372 135.311C91.5327 139.525 95.7234 142.235 100.344 142.235H110.86C111.536 142.235 112.084 142.783 112.084 143.459V143.459Z"/>
<path d="M212.359 143.459C212.359 144.134 211.812 144.682 211.136 144.682H158.346C157.67 144.682 157.122 144.134 157.122 143.459V143.459C157.122 142.783 157.67 142.235 158.346 142.235H166.911C172.318 142.235 176.7 137.852 176.7 132.446V22.3196C176.7 15.5616 171.222 10.0833 164.464 10.0833H134.852C133.365 10.0833 132.16 11.2885 132.16 12.7753V12.7753C132.16 87.6613 126.289 144.682 107.445 144.682C104.951 144.682 94.6549 144.858 91.2055 142.745C90.7546 142.468 90.6924 141.884 90.9492 141.422V141.422C91.3471 140.706 92.3442 140.556 93.075 140.926C97.1121 142.973 105.22 142.235 106.955 142.235C124.331 142.235 129.713 86.6824 129.713 12.7753V12.7753C129.713 11.2885 128.508 10.0833 127.021 10.0833H111.359C110.683 10.0833 110.135 9.53545 110.135 8.85966V8.85966C110.135 8.18387 110.683 7.63603 111.359 7.63603H203.375C204.051 7.63603 204.599 8.18387 204.599 8.85966V8.85966C204.599 9.53545 204.051 10.0833 203.375 10.0833H194.81C189.404 10.0833 185.021 14.466 185.021 19.8723V129.999C185.021 136.757 190.499 142.235 197.257 142.235H211.136C211.812 142.235 212.359 142.783 212.359 143.459V143.459Z"/>
<path d="M328.693 143.459C328.693 144.134 328.146 144.682 327.47 144.682H274.973C274.297 144.682 273.749 144.134 273.749 143.459V143.459C273.749 142.783 274.297 142.235 274.973 142.235H283.538C288.945 142.235 293.327 137.852 293.327 132.446V75.5834C293.327 62.9788 276.572 58.6075 270.414 69.6055L238.646 126.345C237.754 127.938 237.285 129.734 237.285 131.56V132.446C237.285 137.852 241.668 142.235 247.074 142.235H255.64C256.315 142.235 256.863 142.783 256.863 143.459V143.459C256.863 144.134 256.315 144.682 255.64 144.682H210.61C209.934 144.682 209.386 144.134 209.386 143.459V143.459C209.386 142.783 209.934 142.235 210.61 142.235H219.175C224.582 142.235 228.964 137.852 228.964 132.446V19.8723C228.964 14.466 224.582 10.0833 219.175 10.0833H210.61C209.934 10.0833 209.386 9.53545 209.386 8.85966V8.85966C209.386 8.18387 209.934 7.63603 210.61 7.63603H255.64C256.315 7.63603 256.863 8.18387 256.863 8.85966V8.85966C256.863 9.53545 256.315 10.0833 255.64 10.0833H247.074C241.668 10.0833 237.285 14.466 237.285 19.8723V76.7349C237.285 89.3396 254.04 93.7108 260.198 82.7128L291.967 25.9732C292.859 24.3799 293.327 22.5843 293.327 20.7582V19.8723C293.327 14.466 288.945 10.0833 283.538 10.0833H274.973C274.297 10.0833 273.749 9.53545 273.749 8.85966V8.85966C273.749 8.18387 274.297 7.63603 274.973 7.63603H327.827C328.502 7.63603 329.05 8.18387 329.05 8.85966V8.85966C329.05 9.53545 328.502 10.0833 327.827 10.0833L313.884 10.0833C307.126 10.0833 301.648 15.5616 301.648 22.3196V129.999C301.648 136.757 307.126 142.235 313.884 142.235H327.47C328.146 142.235 328.693 142.783 328.693 143.459V143.459Z"/>
<path d="M445.384 143.459C445.384 144.134 444.836 144.682 444.161 144.682H391.791C391.115 144.682 390.567 144.134 390.567 143.459V143.459C390.567 142.783 391.115 142.235 391.791 142.235H400.356C405.763 142.235 410.145 137.852 410.145 132.446V89.6191C410.145 82.8611 404.667 77.3828 397.909 77.3828H366.34C359.582 77.3828 354.103 82.8612 354.103 89.6191V132.446C354.103 137.852 358.486 142.235 363.892 142.235H372.458C373.133 142.235 373.681 142.783 373.681 143.459V143.459C373.681 144.134 373.133 144.682 372.458 144.682H327.428C326.752 144.682 326.205 144.134 326.205 143.459V143.459C326.205 142.783 326.752 142.235 327.428 142.235H335.994C341.4 142.235 345.783 137.852 345.783 132.446V19.8723C345.783 14.466 341.4 10.0833 335.994 10.0833H327.428C326.752 10.0833 326.205 9.53545 326.205 8.85966V8.85966C326.205 8.18387 326.752 7.63603 327.428 7.63603H372.458C373.134 7.63603 373.681 8.18387 373.681 8.85966V8.85966C373.681 9.53545 373.133 10.0833 372.458 10.0833H363.892C358.486 10.0833 354.103 14.466 354.103 19.8723V62.6993C354.103 69.4572 359.582 74.9355 366.34 74.9355H397.909C404.667 74.9355 410.145 69.4572 410.145 62.6993V19.8723C410.145 14.466 405.763 10.0833 400.356 10.0833H391.791C391.115 10.0833 390.567 9.53545 390.567 8.85966V8.85966C390.567 8.18387 391.115 7.63603 391.791 7.63603H449.157C449.832 7.63603 450.38 8.18387 450.38 8.85966V8.85966C450.38 9.53545 449.832 10.0833 449.157 10.0833H430.702C423.944 10.0833 418.466 15.5617 418.466 22.3196V129.999C418.466 136.757 423.944 142.235 430.702 142.235H444.161C444.836 142.235 445.384 142.783 445.384 143.459V143.459Z"/>
<path d="M561.005 143.459C561.005 144.134 560.457 144.682 559.781 144.682H508.609C507.933 144.682 507.386 144.134 507.386 143.459V143.459C507.386 142.783 507.933 142.235 508.609 142.235H517.175C522.581 142.235 526.964 137.852 526.964 132.446V75.5834C526.964 62.9788 510.209 58.6075 504.051 69.6055L472.282 126.345C471.39 127.938 470.921 129.734 470.921 131.56V132.446C470.921 137.852 475.304 142.235 480.711 142.235H489.276C489.952 142.235 490.5 142.783 490.5 143.459V143.459C490.5 144.134 489.952 144.682 489.276 144.682H444.246C443.571 144.682 443.023 144.134 443.023 143.459V143.459C443.023 142.783 443.571 142.235 444.246 142.235H452.812C458.218 142.235 462.601 137.852 462.601 132.446V19.8723C462.601 14.466 458.218 10.0833 452.812 10.0833H444.246C443.571 10.0833 443.023 9.53545 443.023 8.85966V8.85966C443.023 8.18387 443.571 7.63603 444.246 7.63603H489.276C489.952 7.63603 490.5 8.18387 490.5 8.85966V8.85966C490.5 9.53545 489.952 10.0833 489.276 10.0833H480.711C475.304 10.0833 470.921 14.466 470.921 19.8723V76.7349C470.921 89.3396 487.677 93.7109 493.834 82.7128L525.603 25.9732C526.495 24.3799 526.964 22.5843 526.964 20.7581V19.8723C526.964 14.466 522.581 10.0833 517.175 10.0833H508.609C507.933 10.0833 507.386 9.53545 507.386 8.85966V8.85966C507.386 8.18387 507.933 7.63603 508.609 7.63603H553.639C554.314 7.63603 554.862 8.18387 554.862 8.85966V8.85966C554.862 9.53545 554.314 10.0833 553.639 10.0833H545.073C539.667 10.0833 535.284 14.466 535.284 19.8723V129.999C535.284 136.757 540.763 142.235 547.521 142.235H559.781C560.457 142.235 561.005 142.783 561.005 143.459V143.459Z"/>
<path d="M670.558 143.459C670.558 144.134 670.011 144.682 669.335 144.682H619.309C618.633 144.682 618.086 144.134 618.086 143.459V143.459C618.086 142.783 618.633 142.235 619.309 142.235H625.779C631.359 142.235 635.083 136.482 632.799 131.392L615.382 92.5691C611.3 83.4693 598.63 82.8138 593.63 91.4435L589.388 98.7651C588.308 100.629 587.74 102.745 587.74 104.899V132.446C587.74 137.852 592.122 142.235 597.529 142.235H606.094C606.77 142.235 607.318 142.783 607.318 143.459V143.459C607.318 144.134 606.77 144.682 606.094 144.682H561.065C560.389 144.682 559.841 144.134 559.841 143.459V143.459C559.841 142.783 560.389 142.235 561.065 142.235H569.63C575.036 142.235 579.419 137.852 579.419 132.446V19.8723C579.419 14.466 575.036 10.0833 569.63 10.0833H561.065C560.389 10.0833 559.841 9.53545 559.841 8.85966V8.85966C559.841 8.18387 560.389 7.63603 561.065 7.63603H606.094C606.77 7.63603 607.318 8.18387 607.318 8.85966V8.85966C607.318 9.53545 606.77 10.0833 606.094 10.0833H597.529C592.122 10.0833 587.74 14.466 587.74 19.8723V50.8429C587.74 63.3591 604.308 67.8022 610.57 56.9654L631.53 20.6973C634.255 15.9811 630.852 10.0833 625.405 10.0833H619.554C618.878 10.0833 618.33 9.53545 618.33 8.85966V8.85966C618.33 8.18387 618.878 7.63603 619.554 7.63603H659.2C659.875 7.63603 660.423 8.18387 660.423 8.85966V8.85966C660.423 9.53545 659.875 10.0833 659.2 10.0833H647.905C643.536 10.0833 639.498 12.4126 637.311 16.1947L614.127 56.293C612.156 59.7006 611.946 63.848 613.561 67.4378L643.962 135.019C645.937 139.41 650.305 142.235 655.121 142.235H669.335C670.011 142.235 670.558 142.783 670.558 143.459V143.459Z"/>
<path d="M795.814 143.459C795.814 144.134 795.266 144.682 794.59 144.682H749.071C748.395 144.682 747.847 144.134 747.847 143.459V143.459C747.847 142.783 748.395 142.235 749.071 142.235H756.131C761.727 142.235 765.713 136.8 764.031 131.462L758.865 115.064C757.26 109.97 752.536 106.505 747.194 106.505H711.303C705.961 106.505 701.237 109.97 699.632 115.064L694.465 131.462C692.784 136.8 696.769 142.235 702.366 142.235H709.426C710.101 142.235 710.649 142.783 710.649 143.459V143.459C710.649 144.134 710.101 144.682 709.426 144.682H670.025C669.349 144.682 668.801 144.134 668.801 143.459V143.459C668.801 142.783 669.349 142.235 670.025 142.235H680.103C685.031 142.235 689.391 139.044 690.871 134.344C703.934 92.8764 717.558 48.0441 730.557 6.95592C730.798 6.19363 731.505 5.67822 732.304 5.67822V5.67822C733.107 5.67822 733.816 6.20002 734.055 6.96614L773.765 134.313C775.235 139.025 779.598 142.235 784.534 142.235H794.59C795.266 142.235 795.814 142.783 795.814 143.459V143.459ZM738.828 104.058C747.072 104.058 752.957 96.071 750.515 88.1969L740.935 57.3103C737.374 45.8282 721.122 45.8282 717.561 57.3103L707.982 88.1969C705.54 96.071 711.425 104.058 719.669 104.058H738.828Z"/>
</mask>
<path d="M112.084 143.459C112.084 144.134 111.536 144.682 110.86 144.682H64.8531C64.1773 144.682 63.6294 144.134 63.6294 143.459V143.459C63.6294 142.783 64.1773 142.235 64.8531 142.235H71.3232C76.9025 142.235 80.6267 136.482 78.343 131.392L60.9258 92.5691C56.8434 83.4693 44.1737 82.8138 39.1739 91.4436L34.9321 98.7651C33.8522 100.629 33.2835 102.745 33.2835 104.899V132.446C33.2835 137.852 37.6662 142.235 43.0725 142.235H51.6379C52.3137 142.235 52.8615 142.783 52.8615 143.459V143.459C52.8615 144.134 52.3137 144.682 51.6379 144.682H6.6084C5.9326 144.682 5.38477 144.134 5.38477 143.459V143.459C5.38477 142.783 5.9326 142.235 6.6084 142.235H15.1738C20.5801 142.235 24.9628 137.852 24.9628 132.446V19.8723C24.9628 14.466 20.5801 10.0833 15.1738 10.0833H6.60839C5.9326 10.0833 5.38477 9.53545 5.38477 8.85966V8.85966C5.38477 8.18387 5.9326 7.63603 6.60839 7.63603H51.6379C52.3137 7.63603 52.8615 8.18387 52.8615 8.85966V8.85966C52.8615 9.53545 52.3137 10.0833 51.6379 10.0833H43.0725C37.6662 10.0833 33.2835 14.466 33.2835 19.8723V50.8429C33.2835 63.3591 49.8515 67.8022 56.1141 56.9654L77.0736 20.6973C79.7991 15.9811 76.3956 10.0833 70.9485 10.0833H65.0978C64.422 10.0833 63.8742 9.53545 63.8742 8.85966V8.85966C63.8742 8.18387 64.422 7.63603 65.0978 7.63603H110.86C111.536 7.63603 112.084 8.18387 112.084 8.85966V8.85966C112.084 9.53545 111.536 10.0833 110.86 10.0833H93.4483C89.0795 10.0833 85.0421 12.4126 82.8553 16.1947L59.6705 56.293C57.7002 59.7006 57.4895 63.848 59.1044 67.4378L89.6372 135.311C91.5327 139.525 95.7234 142.235 100.344 142.235H110.86C111.536 142.235 112.084 142.783 112.084 143.459V143.459Z" fill="#262696"/>
<path d="M212.359 143.459C212.359 144.134 211.812 144.682 211.136 144.682H158.346C157.67 144.682 157.122 144.134 157.122 143.459V143.459C157.122 142.783 157.67 142.235 158.346 142.235H166.911C172.318 142.235 176.7 137.852 176.7 132.446V22.3196C176.7 15.5616 171.222 10.0833 164.464 10.0833H134.852C133.365 10.0833 132.16 11.2885 132.16 12.7753V12.7753C132.16 87.6613 126.289 144.682 107.445 144.682C104.951 144.682 94.6549 144.858 91.2055 142.745C90.7546 142.468 90.6924 141.884 90.9492 141.422V141.422C91.3471 140.706 92.3442 140.556 93.075 140.926C97.1121 142.973 105.22 142.235 106.955 142.235C124.331 142.235 129.713 86.6824 129.713 12.7753V12.7753C129.713 11.2885 128.508 10.0833 127.021 10.0833H111.359C110.683 10.0833 110.135 9.53545 110.135 8.85966V8.85966C110.135 8.18387 110.683 7.63603 111.359 7.63603H203.375C204.051 7.63603 204.599 8.18387 204.599 8.85966V8.85966C204.599 9.53545 204.051 10.0833 203.375 10.0833H194.81C189.404 10.0833 185.021 14.466 185.021 19.8723V129.999C185.021 136.757 190.499 142.235 197.257 142.235H211.136C211.812 142.235 212.359 142.783 212.359 143.459V143.459Z" fill="#262696"/>
<path d="M328.693 143.459C328.693 144.134 328.146 144.682 327.47 144.682H274.973C274.297 144.682 273.749 144.134 273.749 143.459V143.459C273.749 142.783 274.297 142.235 274.973 142.235H283.538C288.945 142.235 293.327 137.852 293.327 132.446V75.5834C293.327 62.9788 276.572 58.6075 270.414 69.6055L238.646 126.345C237.754 127.938 237.285 129.734 237.285 131.56V132.446C237.285 137.852 241.668 142.235 247.074 142.235H255.64C256.315 142.235 256.863 142.783 256.863 143.459V143.459C256.863 144.134 256.315 144.682 255.64 144.682H210.61C209.934 144.682 209.386 144.134 209.386 143.459V143.459C209.386 142.783 209.934 142.235 210.61 142.235H219.175C224.582 142.235 228.964 137.852 228.964 132.446V19.8723C228.964 14.466 224.582 10.0833 219.175 10.0833H210.61C209.934 10.0833 209.386 9.53545 209.386 8.85966V8.85966C209.386 8.18387 209.934 7.63603 210.61 7.63603H255.64C256.315 7.63603 256.863 8.18387 256.863 8.85966V8.85966C256.863 9.53545 256.315 10.0833 255.64 10.0833H247.074C241.668 10.0833 237.285 14.466 237.285 19.8723V76.7349C237.285 89.3396 254.04 93.7108 260.198 82.7128L291.967 25.9732C292.859 24.3799 293.327 22.5843 293.327 20.7582V19.8723C293.327 14.466 288.945 10.0833 283.538 10.0833H274.973C274.297 10.0833 273.749 9.53545 273.749 8.85966V8.85966C273.749 8.18387 274.297 7.63603 274.973 7.63603H327.827C328.502 7.63603 329.05 8.18387 329.05 8.85966V8.85966C329.05 9.53545 328.502 10.0833 327.827 10.0833L313.884 10.0833C307.126 10.0833 301.648 15.5616 301.648 22.3196V129.999C301.648 136.757 307.126 142.235 313.884 142.235H327.47C328.146 142.235 328.693 142.783 328.693 143.459V143.459Z" fill="#262696"/>
<path d="M445.384 143.459C445.384 144.134 444.836 144.682 444.161 144.682H391.791C391.115 144.682 390.567 144.134 390.567 143.459V143.459C390.567 142.783 391.115 142.235 391.791 142.235H400.356C405.763 142.235 410.145 137.852 410.145 132.446V89.6191C410.145 82.8611 404.667 77.3828 397.909 77.3828H366.34C359.582 77.3828 354.103 82.8612 354.103 89.6191V132.446C354.103 137.852 358.486 142.235 363.892 142.235H372.458C373.133 142.235 373.681 142.783 373.681 143.459V143.459C373.681 144.134 373.133 144.682 372.458 144.682H327.428C326.752 144.682 326.205 144.134 326.205 143.459V143.459C326.205 142.783 326.752 142.235 327.428 142.235H335.994C341.4 142.235 345.783 137.852 345.783 132.446V19.8723C345.783 14.466 341.4 10.0833 335.994 10.0833H327.428C326.752 10.0833 326.205 9.53545 326.205 8.85966V8.85966C326.205 8.18387 326.752 7.63603 327.428 7.63603H372.458C373.134 7.63603 373.681 8.18387 373.681 8.85966V8.85966C373.681 9.53545 373.133 10.0833 372.458 10.0833H363.892C358.486 10.0833 354.103 14.466 354.103 19.8723V62.6993C354.103 69.4572 359.582 74.9355 366.34 74.9355H397.909C404.667 74.9355 410.145 69.4572 410.145 62.6993V19.8723C410.145 14.466 405.763 10.0833 400.356 10.0833H391.791C391.115 10.0833 390.567 9.53545 390.567 8.85966V8.85966C390.567 8.18387 391.115 7.63603 391.791 7.63603H449.157C449.832 7.63603 450.38 8.18387 450.38 8.85966V8.85966C450.38 9.53545 449.832 10.0833 449.157 10.0833H430.702C423.944 10.0833 418.466 15.5617 418.466 22.3196V129.999C418.466 136.757 423.944 142.235 430.702 142.235H444.161C444.836 142.235 445.384 142.783 445.384 143.459V143.459Z" fill="#262696"/>
<path d="M561.005 143.459C561.005 144.134 560.457 144.682 559.781 144.682H508.609C507.933 144.682 507.386 144.134 507.386 143.459V143.459C507.386 142.783 507.933 142.235 508.609 142.235H517.175C522.581 142.235 526.964 137.852 526.964 132.446V75.5834C526.964 62.9788 510.209 58.6075 504.051 69.6055L472.282 126.345C471.39 127.938 470.921 129.734 470.921 131.56V132.446C470.921 137.852 475.304 142.235 480.711 142.235H489.276C489.952 142.235 490.5 142.783 490.5 143.459V143.459C490.5 144.134 489.952 144.682 489.276 144.682H444.246C443.571 144.682 443.023 144.134 443.023 143.459V143.459C443.023 142.783 443.571 142.235 444.246 142.235H452.812C458.218 142.235 462.601 137.852 462.601 132.446V19.8723C462.601 14.466 458.218 10.0833 452.812 10.0833H444.246C443.571 10.0833 443.023 9.53545 443.023 8.85966V8.85966C443.023 8.18387 443.571 7.63603 444.246 7.63603H489.276C489.952 7.63603 490.5 8.18387 490.5 8.85966V8.85966C490.5 9.53545 489.952 10.0833 489.276 10.0833H480.711C475.304 10.0833 470.921 14.466 470.921 19.8723V76.7349C470.921 89.3396 487.677 93.7109 493.834 82.7128L525.603 25.9732C526.495 24.3799 526.964 22.5843 526.964 20.7581V19.8723C526.964 14.466 522.581 10.0833 517.175 10.0833H508.609C507.933 10.0833 507.386 9.53545 507.386 8.85966V8.85966C507.386 8.18387 507.933 7.63603 508.609 7.63603H553.639C554.314 7.63603 554.862 8.18387 554.862 8.85966V8.85966C554.862 9.53545 554.314 10.0833 553.639 10.0833H545.073C539.667 10.0833 535.284 14.466 535.284 19.8723V129.999C535.284 136.757 540.763 142.235 547.521 142.235H559.781C560.457 142.235 561.005 142.783 561.005 143.459V143.459Z" fill="#262696"/>
<path d="M670.558 143.459C670.558 144.134 670.011 144.682 669.335 144.682H619.309C618.633 144.682 618.086 144.134 618.086 143.459V143.459C618.086 142.783 618.633 142.235 619.309 142.235H625.779C631.359 142.235 635.083 136.482 632.799 131.392L615.382 92.5691C611.3 83.4693 598.63 82.8138 593.63 91.4435L589.388 98.7651C588.308 100.629 587.74 102.745 587.74 104.899V132.446C587.74 137.852 592.122 142.235 597.529 142.235H606.094C606.77 142.235 607.318 142.783 607.318 143.459V143.459C607.318 144.134 606.77 144.682 606.094 144.682H561.065C560.389 144.682 559.841 144.134 559.841 143.459V143.459C559.841 142.783 560.389 142.235 561.065 142.235H569.63C575.036 142.235 579.419 137.852 579.419 132.446V19.8723C579.419 14.466 575.036 10.0833 569.63 10.0833H561.065C560.389 10.0833 559.841 9.53545 559.841 8.85966V8.85966C559.841 8.18387 560.389 7.63603 561.065 7.63603H606.094C606.77 7.63603 607.318 8.18387 607.318 8.85966V8.85966C607.318 9.53545 606.77 10.0833 606.094 10.0833H597.529C592.122 10.0833 587.74 14.466 587.74 19.8723V50.8429C587.74 63.3591 604.308 67.8022 610.57 56.9654L631.53 20.6973C634.255 15.9811 630.852 10.0833 625.405 10.0833H619.554C618.878 10.0833 618.33 9.53545 618.33 8.85966V8.85966C618.33 8.18387 618.878 7.63603 619.554 7.63603H659.2C659.875 7.63603 660.423 8.18387 660.423 8.85966V8.85966C660.423 9.53545 659.875 10.0833 659.2 10.0833H647.905C643.536 10.0833 639.498 12.4126 637.311 16.1947L614.127 56.293C612.156 59.7006 611.946 63.848 613.561 67.4378L643.962 135.019C645.937 139.41 650.305 142.235 655.121 142.235H669.335C670.011 142.235 670.558 142.783 670.558 143.459V143.459Z" fill="#262696"/>
<path d="M795.814 143.459C795.814 144.134 795.266 144.682 794.59 144.682H749.071C748.395 144.682 747.847 144.134 747.847 143.459V143.459C747.847 142.783 748.395 142.235 749.071 142.235H756.131C761.727 142.235 765.713 136.8 764.031 131.462L758.865 115.064C757.26 109.97 752.536 106.505 747.194 106.505H711.303C705.961 106.505 701.237 109.97 699.632 115.064L694.465 131.462C692.784 136.8 696.769 142.235 702.366 142.235H709.426C710.101 142.235 710.649 142.783 710.649 143.459V143.459C710.649 144.134 710.101 144.682 709.426 144.682H670.025C669.349 144.682 668.801 144.134 668.801 143.459V143.459C668.801 142.783 669.349 142.235 670.025 142.235H680.103C685.031 142.235 689.391 139.044 690.871 134.344C703.934 92.8764 717.558 48.0441 730.557 6.95592C730.798 6.19363 731.505 5.67822 732.304 5.67822V5.67822C733.107 5.67822 733.816 6.20002 734.055 6.96614L773.765 134.313C775.235 139.025 779.598 142.235 784.534 142.235H794.59C795.266 142.235 795.814 142.783 795.814 143.459V143.459ZM738.828 104.058C747.072 104.058 752.957 96.071 750.515 88.1969L740.935 57.3103C737.374 45.8282 721.122 45.8282 717.561 57.3103L707.982 88.1969C705.54 96.071 711.425 104.058 719.669 104.058H738.828Z" fill="#262696"/>
<path d="M112.084 143.459C112.084 144.134 111.536 144.682 110.86 144.682H64.8531C64.1773 144.682 63.6294 144.134 63.6294 143.459V143.459C63.6294 142.783 64.1773 142.235 64.8531 142.235H71.3232C76.9025 142.235 80.6267 136.482 78.343 131.392L60.9258 92.5691C56.8434 83.4693 44.1737 82.8138 39.1739 91.4436L34.9321 98.7651C33.8522 100.629 33.2835 102.745 33.2835 104.899V132.446C33.2835 137.852 37.6662 142.235 43.0725 142.235H51.6379C52.3137 142.235 52.8615 142.783 52.8615 143.459V143.459C52.8615 144.134 52.3137 144.682 51.6379 144.682H6.6084C5.9326 144.682 5.38477 144.134 5.38477 143.459V143.459C5.38477 142.783 5.9326 142.235 6.6084 142.235H15.1738C20.5801 142.235 24.9628 137.852 24.9628 132.446V19.8723C24.9628 14.466 20.5801 10.0833 15.1738 10.0833H6.60839C5.9326 10.0833 5.38477 9.53545 5.38477 8.85966V8.85966C5.38477 8.18387 5.9326 7.63603 6.60839 7.63603H51.6379C52.3137 7.63603 52.8615 8.18387 52.8615 8.85966V8.85966C52.8615 9.53545 52.3137 10.0833 51.6379 10.0833H43.0725C37.6662 10.0833 33.2835 14.466 33.2835 19.8723V50.8429C33.2835 63.3591 49.8515 67.8022 56.1141 56.9654L77.0736 20.6973C79.7991 15.9811 76.3956 10.0833 70.9485 10.0833H65.0978C64.422 10.0833 63.8742 9.53545 63.8742 8.85966V8.85966C63.8742 8.18387 64.422 7.63603 65.0978 7.63603H110.86C111.536 7.63603 112.084 8.18387 112.084 8.85966V8.85966C112.084 9.53545 111.536 10.0833 110.86 10.0833H93.4483C89.0795 10.0833 85.0421 12.4126 82.8553 16.1947L59.6705 56.293C57.7002 59.7006 57.4895 63.848 59.1044 67.4378L89.6372 135.311C91.5327 139.525 95.7234 142.235 100.344 142.235H110.86C111.536 142.235 112.084 142.783 112.084 143.459V143.459Z" stroke="#262696" stroke-width="9.99188" mask="url(#path-1-outside-1_585_255)"/>
<path d="M212.359 143.459C212.359 144.134 211.812 144.682 211.136 144.682H158.346C157.67 144.682 157.122 144.134 157.122 143.459V143.459C157.122 142.783 157.67 142.235 158.346 142.235H166.911C172.318 142.235 176.7 137.852 176.7 132.446V22.3196C176.7 15.5616 171.222 10.0833 164.464 10.0833H134.852C133.365 10.0833 132.16 11.2885 132.16 12.7753V12.7753C132.16 87.6613 126.289 144.682 107.445 144.682C104.951 144.682 94.6549 144.858 91.2055 142.745C90.7546 142.468 90.6924 141.884 90.9492 141.422V141.422C91.3471 140.706 92.3442 140.556 93.075 140.926C97.1121 142.973 105.22 142.235 106.955 142.235C124.331 142.235 129.713 86.6824 129.713 12.7753V12.7753C129.713 11.2885 128.508 10.0833 127.021 10.0833H111.359C110.683 10.0833 110.135 9.53545 110.135 8.85966V8.85966C110.135 8.18387 110.683 7.63603 111.359 7.63603H203.375C204.051 7.63603 204.599 8.18387 204.599 8.85966V8.85966C204.599 9.53545 204.051 10.0833 203.375 10.0833H194.81C189.404 10.0833 185.021 14.466 185.021 19.8723V129.999C185.021 136.757 190.499 142.235 197.257 142.235H211.136C211.812 142.235 212.359 142.783 212.359 143.459V143.459Z" stroke="#262696" stroke-width="9.99188" mask="url(#path-1-outside-1_585_255)"/>
<path d="M328.693 143.459C328.693 144.134 328.146 144.682 327.47 144.682H274.973C274.297 144.682 273.749 144.134 273.749 143.459V143.459C273.749 142.783 274.297 142.235 274.973 142.235H283.538C288.945 142.235 293.327 137.852 293.327 132.446V75.5834C293.327 62.9788 276.572 58.6075 270.414 69.6055L238.646 126.345C237.754 127.938 237.285 129.734 237.285 131.56V132.446C237.285 137.852 241.668 142.235 247.074 142.235H255.64C256.315 142.235 256.863 142.783 256.863 143.459V143.459C256.863 144.134 256.315 144.682 255.64 144.682H210.61C209.934 144.682 209.386 144.134 209.386 143.459V143.459C209.386 142.783 209.934 142.235 210.61 142.235H219.175C224.582 142.235 228.964 137.852 228.964 132.446V19.8723C228.964 14.466 224.582 10.0833 219.175 10.0833H210.61C209.934 10.0833 209.386 9.53545 209.386 8.85966V8.85966C209.386 8.18387 209.934 7.63603 210.61 7.63603H255.64C256.315 7.63603 256.863 8.18387 256.863 8.85966V8.85966C256.863 9.53545 256.315 10.0833 255.64 10.0833H247.074C241.668 10.0833 237.285 14.466 237.285 19.8723V76.7349C237.285 89.3396 254.04 93.7108 260.198 82.7128L291.967 25.9732C292.859 24.3799 293.327 22.5843 293.327 20.7582V19.8723C293.327 14.466 288.945 10.0833 283.538 10.0833H274.973C274.297 10.0833 273.749 9.53545 273.749 8.85966V8.85966C273.749 8.18387 274.297 7.63603 274.973 7.63603H327.827C328.502 7.63603 329.05 8.18387 329.05 8.85966V8.85966C329.05 9.53545 328.502 10.0833 327.827 10.0833L313.884 10.0833C307.126 10.0833 301.648 15.5616 301.648 22.3196V129.999C301.648 136.757 307.126 142.235 313.884 142.235H327.47C328.146 142.235 328.693 142.783 328.693 143.459V143.459Z" stroke="#262696" stroke-width="9.99188" mask="url(#path-1-outside-1_585_255)"/>
<path d="M445.384 143.459C445.384 144.134 444.836 144.682 444.161 144.682H391.791C391.115 144.682 390.567 144.134 390.567 143.459V143.459C390.567 142.783 391.115 142.235 391.791 142.235H400.356C405.763 142.235 410.145 137.852 410.145 132.446V89.6191C410.145 82.8611 404.667 77.3828 397.909 77.3828H366.34C359.582 77.3828 354.103 82.8612 354.103 89.6191V132.446C354.103 137.852 358.486 142.235 363.892 142.235H372.458C373.133 142.235 373.681 142.783 373.681 143.459V143.459C373.681 144.134 373.133 144.682 372.458 144.682H327.428C326.752 144.682 326.205 144.134 326.205 143.459V143.459C326.205 142.783 326.752 142.235 327.428 142.235H335.994C341.4 142.235 345.783 137.852 345.783 132.446V19.8723C345.783 14.466 341.4 10.0833 335.994 10.0833H327.428C326.752 10.0833 326.205 9.53545 326.205 8.85966V8.85966C326.205 8.18387 326.752 7.63603 327.428 7.63603H372.458C373.134 7.63603 373.681 8.18387 373.681 8.85966V8.85966C373.681 9.53545 373.133 10.0833 372.458 10.0833H363.892C358.486 10.0833 354.103 14.466 354.103 19.8723V62.6993C354.103 69.4572 359.582 74.9355 366.34 74.9355H397.909C404.667 74.9355 410.145 69.4572 410.145 62.6993V19.8723C410.145 14.466 405.763 10.0833 400.356 10.0833H391.791C391.115 10.0833 390.567 9.53545 390.567 8.85966V8.85966C390.567 8.18387 391.115 7.63603 391.791 7.63603H449.157C449.832 7.63603 450.38 8.18387 450.38 8.85966V8.85966C450.38 9.53545 449.832 10.0833 449.157 10.0833H430.702C423.944 10.0833 418.466 15.5617 418.466 22.3196V129.999C418.466 136.757 423.944 142.235 430.702 142.235H444.161C444.836 142.235 445.384 142.783 445.384 143.459V143.459Z" stroke="#262696" stroke-width="9.99188" mask="url(#path-1-outside-1_585_255)"/>
<path d="M561.005 143.459C561.005 144.134 560.457 144.682 559.781 144.682H508.609C507.933 144.682 507.386 144.134 507.386 143.459V143.459C507.386 142.783 507.933 142.235 508.609 142.235H517.175C522.581 142.235 526.964 137.852 526.964 132.446V75.5834C526.964 62.9788 510.209 58.6075 504.051 69.6055L472.282 126.345C471.39 127.938 470.921 129.734 470.921 131.56V132.446C470.921 137.852 475.304 142.235 480.711 142.235H489.276C489.952 142.235 490.5 142.783 490.5 143.459V143.459C490.5 144.134 489.952 144.682 489.276 144.682H444.246C443.571 144.682 443.023 144.134 443.023 143.459V143.459C443.023 142.783 443.571 142.235 444.246 142.235H452.812C458.218 142.235 462.601 137.852 462.601 132.446V19.8723C462.601 14.466 458.218 10.0833 452.812 10.0833H444.246C443.571 10.0833 443.023 9.53545 443.023 8.85966V8.85966C443.023 8.18387 443.571 7.63603 444.246 7.63603H489.276C489.952 7.63603 490.5 8.18387 490.5 8.85966V8.85966C490.5 9.53545 489.952 10.0833 489.276 10.0833H480.711C475.304 10.0833 470.921 14.466 470.921 19.8723V76.7349C470.921 89.3396 487.677 93.7109 493.834 82.7128L525.603 25.9732C526.495 24.3799 526.964 22.5843 526.964 20.7581V19.8723C526.964 14.466 522.581 10.0833 517.175 10.0833H508.609C507.933 10.0833 507.386 9.53545 507.386 8.85966V8.85966C507.386 8.18387 507.933 7.63603 508.609 7.63603H553.639C554.314 7.63603 554.862 8.18387 554.862 8.85966V8.85966C554.862 9.53545 554.314 10.0833 553.639 10.0833H545.073C539.667 10.0833 535.284 14.466 535.284 19.8723V129.999C535.284 136.757 540.763 142.235 547.521 142.235H559.781C560.457 142.235 561.005 142.783 561.005 143.459V143.459Z" stroke="#262696" stroke-width="9.99188" mask="url(#path-1-outside-1_585_255)"/>
<path d="M670.558 143.459C670.558 144.134 670.011 144.682 669.335 144.682H619.309C618.633 144.682 618.086 144.134 618.086 143.459V143.459C618.086 142.783 618.633 142.235 619.309 142.235H625.779C631.359 142.235 635.083 136.482 632.799 131.392L615.382 92.5691C611.3 83.4693 598.63 82.8138 593.63 91.4435L589.388 98.7651C588.308 100.629 587.74 102.745 587.74 104.899V132.446C587.74 137.852 592.122 142.235 597.529 142.235H606.094C606.77 142.235 607.318 142.783 607.318 143.459V143.459C607.318 144.134 606.77 144.682 606.094 144.682H561.065C560.389 144.682 559.841 144.134 559.841 143.459V143.459C559.841 142.783 560.389 142.235 561.065 142.235H569.63C575.036 142.235 579.419 137.852 579.419 132.446V19.8723C579.419 14.466 575.036 10.0833 569.63 10.0833H561.065C560.389 10.0833 559.841 9.53545 559.841 8.85966V8.85966C559.841 8.18387 560.389 7.63603 561.065 7.63603H606.094C606.77 7.63603 607.318 8.18387 607.318 8.85966V8.85966C607.318 9.53545 606.77 10.0833 606.094 10.0833H597.529C592.122 10.0833 587.74 14.466 587.74 19.8723V50.8429C587.74 63.3591 604.308 67.8022 610.57 56.9654L631.53 20.6973C634.255 15.9811 630.852 10.0833 625.405 10.0833H619.554C618.878 10.0833 618.33 9.53545 618.33 8.85966V8.85966C618.33 8.18387 618.878 7.63603 619.554 7.63603H659.2C659.875 7.63603 660.423 8.18387 660.423 8.85966V8.85966C660.423 9.53545 659.875 10.0833 659.2 10.0833H647.905C643.536 10.0833 639.498 12.4126 637.311 16.1947L614.127 56.293C612.156 59.7006 611.946 63.848 613.561 67.4378L643.962 135.019C645.937 139.41 650.305 142.235 655.121 142.235H669.335C670.011 142.235 670.558 142.783 670.558 143.459V143.459Z" stroke="#262696" stroke-width="9.99188" mask="url(#path-1-outside-1_585_255)"/>
<path d="M795.814 143.459C795.814 144.134 795.266 144.682 794.59 144.682H749.071C748.395 144.682 747.847 144.134 747.847 143.459V143.459C747.847 142.783 748.395 142.235 749.071 142.235H756.131C761.727 142.235 765.713 136.8 764.031 131.462L758.865 115.064C757.26 109.97 752.536 106.505 747.194 106.505H711.303C705.961 106.505 701.237 109.97 699.632 115.064L694.465 131.462C692.784 136.8 696.769 142.235 702.366 142.235H709.426C710.101 142.235 710.649 142.783 710.649 143.459V143.459C710.649 144.134 710.101 144.682 709.426 144.682H670.025C669.349 144.682 668.801 144.134 668.801 143.459V143.459C668.801 142.783 669.349 142.235 670.025 142.235H680.103C685.031 142.235 689.391 139.044 690.871 134.344C703.934 92.8764 717.558 48.0441 730.557 6.95592C730.798 6.19363 731.505 5.67822 732.304 5.67822V5.67822C733.107 5.67822 733.816 6.20002 734.055 6.96614L773.765 134.313C775.235 139.025 779.598 142.235 784.534 142.235H794.59C795.266 142.235 795.814 142.783 795.814 143.459V143.459ZM738.828 104.058C747.072 104.058 752.957 96.071 750.515 88.1969L740.935 57.3103C737.374 45.8282 721.122 45.8282 717.561 57.3103L707.982 88.1969C705.54 96.071 711.425 104.058 719.669 104.058H738.828Z" stroke="#262696" stroke-width="9.99188" mask="url(#path-1-outside-1_585_255)"/>
</svg>
