<svg width="980" height="148" viewBox="0 0 980 148" fill="none" xmlns="http://www.w3.org/2000/svg">
<mask id="path-1-outside-1_585_256" maskUnits="userSpaceOnUse" x="0.0800781" y="-0.321777" width="980" height="149" fill="black">
<rect fill="white" x="0.0800781" y="-0.321777" width="980" height="149"/>
<path d="M111.222 140.549C111.222 141.216 110.682 141.756 110.015 141.756H65.7359C65.0695 141.756 64.5292 141.216 64.5292 140.549V140.549C64.5292 139.883 65.0695 139.343 65.7359 139.343H74.1566C79.4737 139.343 83.784 135.032 83.784 129.715V21.2551C83.784 14.4991 78.3071 9.02224 71.5511 9.02224H44.7511C37.995 9.02224 32.5181 14.4991 32.5181 21.2551V129.715C32.5181 135.032 36.8285 139.343 42.1455 139.343H50.5663C51.2327 139.343 51.7729 139.883 51.7729 140.549V140.549C51.7729 141.216 51.2327 141.756 50.5663 141.756H6.28674C5.62032 141.756 5.08008 141.216 5.08008 140.549V140.549C5.08008 139.883 5.62032 139.343 6.28674 139.343H14.7075C20.0245 139.343 24.3349 135.032 24.3349 129.715V18.6496C24.3349 13.3326 20.0245 9.02224 14.7075 9.02224H6.28675C5.62032 9.02224 5.08008 8.48199 5.08008 7.81557V7.81557C5.08008 7.14914 5.62032 6.6089 6.28675 6.6089H110.015C110.682 6.6089 111.222 7.14914 111.222 7.81557V7.81557C111.222 8.48199 110.682 9.02224 110.015 9.02224H101.595C96.2776 9.02224 91.9673 13.3326 91.9673 18.6496V129.715C91.9673 135.032 96.2776 139.343 101.595 139.343H110.015C110.682 139.343 111.222 139.883 111.222 140.549V140.549Z"/>
<path d="M159.056 143.687C126.805 143.687 108.753 112.555 108.753 74.1824C108.753 35.8103 126.805 4.67822 159.056 4.67822C191.067 4.67822 209.119 35.8103 209.119 74.1824C209.119 112.555 191.067 143.687 159.056 143.687ZM159.056 141.273C189.383 141.273 200.454 110.865 200.454 74.1824C200.454 37.4997 189.383 7.09156 159.056 7.09156C128.489 7.09156 117.418 37.4997 117.418 74.1824C117.418 110.865 128.489 141.273 159.056 141.273Z"/>
<path d="M253.365 140.549C253.365 141.216 252.825 141.756 252.159 141.756H207.879C207.213 141.756 206.672 141.216 206.672 140.549V140.549C206.672 139.883 207.213 139.343 207.879 139.343H216.3C221.617 139.343 225.927 135.032 225.927 129.715V18.6496C225.927 13.3326 221.617 9.02224 216.3 9.02224H207.879C207.213 9.02224 206.672 8.48199 206.672 7.81557V7.81557C206.672 7.14914 207.213 6.6089 207.879 6.6089H273.625C280.381 6.6089 285.858 12.0858 285.858 18.8418V60.1883C285.858 60.8529 285.319 61.3917 284.654 61.3917V61.3917C283.99 61.3917 283.451 60.8529 283.451 60.1883V41.8437C283.451 9.02224 274.064 9.02224 266.362 9.02224H246.343C239.587 9.02224 234.11 14.4991 234.11 21.2551V129.715C234.11 135.032 238.421 139.343 243.738 139.343H252.159C252.825 139.343 253.365 139.883 253.365 140.549V140.549Z"/>
<path d="M322.844 140.549C322.844 141.216 322.304 141.756 321.637 141.756H277.358C276.692 141.756 276.151 141.216 276.151 140.549V140.549C276.151 139.883 276.692 139.343 277.358 139.343H285.779C291.096 139.343 295.406 135.032 295.406 129.715V18.6496C295.406 13.3326 291.096 9.02224 285.779 9.02224H277.358C276.692 9.02224 276.151 8.48199 276.151 7.81557V7.81557C276.151 7.14914 276.692 6.6089 277.358 6.6089H327.417C349.801 6.6089 365.205 28.329 365.205 55.3584C365.205 82.3878 349.801 104.108 327.417 104.108C321.826 104.108 316.859 103.066 312.514 100.595C311.955 100.277 311.776 99.5656 312.087 99.0027V99.0027C312.435 98.3756 313.246 98.1874 313.863 98.5529C318.132 101.084 322.775 101.695 327.417 101.695C348.116 101.695 356.54 80.6985 356.54 55.3584C356.54 30.0183 348.116 9.02224 327.417 9.02224H315.822C309.066 9.02224 303.589 14.4991 303.589 21.2551V129.715C303.589 135.032 307.9 139.343 313.217 139.343H321.637C322.304 139.343 322.844 139.883 322.844 140.549V140.549Z"/>
<path d="M397.939 132.458C398.274 131.913 398.503 131.314 398.695 130.704L401.77 120.968C402.555 118.481 402.526 115.808 401.685 113.34L368.744 16.6261C367.195 12.0793 362.925 9.02224 358.121 9.02224H348.106C347.44 9.02224 346.899 8.48199 346.899 7.81557V7.81557C346.899 7.14914 347.44 6.6089 348.106 6.6089H392.867C393.533 6.6089 394.074 7.14914 394.074 7.81557V7.81557C394.074 8.48199 393.533 9.02224 392.867 9.02224H386.027C380.522 9.02224 376.644 14.4254 378.419 19.6364C384.014 36.0669 389.762 52.6498 395.458 69.1801C399.286 80.2908 415.114 80.2158 418.795 69.0558L435.1 19.6341C436.824 14.4064 432.931 9.02224 427.426 9.02224H420.552C419.886 9.02224 419.346 8.48199 419.346 7.81557V7.81557C419.346 7.14914 419.886 6.6089 420.552 6.6089H459.296C459.962 6.6089 460.503 7.14914 460.503 7.81557V7.81557C460.503 8.48199 459.962 9.02224 459.296 9.02224H449.335C444.51 9.02224 440.231 12.1212 438.719 16.7034C426.215 54.6124 412.986 93.6307 400.813 131.379C398.887 137.412 393.592 141.756 387.094 141.756C384.434 141.756 379.938 140.528 377.364 138.261C376.974 137.918 376.914 137.348 377.166 136.893V136.893C377.557 136.186 378.519 136.053 379.159 136.547C382.065 138.788 385.409 139.343 387.094 139.343C391.112 139.343 395.752 136.021 397.939 132.458Z"/>
<path d="M595.109 140.549C595.109 141.216 594.569 141.756 593.903 141.756H548.66C547.994 141.756 547.454 141.216 547.454 140.549V140.549C547.454 139.883 547.994 139.343 548.66 139.343H555.048C560.537 139.343 564.21 133.7 561.962 128.692C556.309 116.098 550.512 103.456 544.792 90.8399C540.66 81.725 527.9 81.0539 522.893 89.7193L519.009 96.4411C517.934 98.3016 517.368 100.412 517.368 102.561V129.715C517.368 135.032 521.679 139.343 526.996 139.343H535.416C536.083 139.343 536.623 139.883 536.623 140.549V140.549C536.623 141.216 536.083 141.756 535.416 141.756H491.378C490.711 141.756 490.171 141.216 490.171 140.549V140.549C490.171 139.883 490.711 139.343 491.378 139.343H499.678C504.928 139.343 509.185 135.086 509.185 129.836V102.522C509.185 100.398 508.632 98.3107 507.58 96.4653L503.757 89.7563C498.805 81.0678 486.087 81.6688 481.977 90.7855L464.893 128.679C462.638 133.681 466.296 139.343 471.783 139.343H478.133C478.8 139.343 479.34 139.883 479.34 140.549V140.549C479.34 141.216 478.8 141.756 478.133 141.756H432.891C432.225 141.756 431.684 141.216 431.684 140.549V140.549C431.684 139.883 432.225 139.343 432.891 139.343H443.239C447.78 139.343 451.9 136.683 453.769 132.544L483.968 65.6831C485.595 62.0815 485.382 57.9158 483.395 54.4993L460.491 15.1017C458.303 11.338 454.278 9.02224 449.924 9.02224H438.908C438.242 9.02224 437.702 8.48199 437.702 7.81557V7.81557C437.702 7.14914 438.242 6.6089 438.908 6.6089H477.893C478.559 6.6089 479.099 7.14914 479.099 7.81557V7.81557C479.099 8.48199 478.559 9.02224 477.893 9.02224H472.162C466.808 9.02224 463.471 14.8306 466.158 19.4609C472.943 31.1485 479.66 42.8052 486.362 54.4647C492.605 65.3266 509.185 60.9067 509.185 48.3784V18.5293C509.185 13.2787 504.928 9.02224 499.678 9.02224H491.378C490.711 9.02224 490.171 8.48199 490.171 7.81557V7.81557C490.171 7.14914 490.711 6.6089 491.378 6.6089H535.416C536.083 6.6089 536.623 7.14914 536.623 7.81557V7.81557C536.623 8.48199 536.083 9.02224 535.416 9.02224H526.996C521.679 9.02224 517.368 13.3326 517.368 18.6496V48.5541C517.368 61.0528 533.902 65.5059 540.179 54.698L560.648 19.4575C563.337 14.8266 559.996 9.02224 554.641 9.02224H548.901C548.235 9.02224 547.694 8.48199 547.694 7.81557V7.81557C547.694 7.14914 548.235 6.6089 548.901 6.6089H587.645C588.311 6.6089 588.852 7.14914 588.852 7.81557V7.81557C588.852 8.48199 588.311 9.02224 587.645 9.02224H576.782C572.483 9.02224 568.508 11.309 566.347 15.0257L543.389 54.5162C541.408 57.9233 541.19 62.076 542.803 65.6718L572.757 132.439C574.642 136.64 578.817 139.343 583.421 139.343H593.903C594.569 139.343 595.109 139.883 595.109 140.549V140.549Z"/>
<path d="M671.091 129.523C671.091 136.279 665.614 141.756 658.858 141.756H589.261C588.595 141.756 588.054 141.216 588.054 140.549V140.549C588.054 139.883 588.595 139.343 589.261 139.343H597.682C602.999 139.343 607.309 135.032 607.309 129.715V18.6496C607.309 13.3326 602.999 9.02224 597.682 9.02224H589.261C588.595 9.02224 588.054 8.48199 588.054 7.81557V7.81557C588.054 7.14914 588.595 6.6089 589.261 6.6089H658.858C665.614 6.6089 671.091 12.0858 671.091 18.8418V60.1883C671.091 60.8529 670.552 61.3917 669.887 61.3917V61.3917C669.223 61.3917 668.684 60.8529 668.684 60.1883V41.8437C668.684 9.02224 659.297 9.02224 651.595 9.02224H627.725C620.969 9.02224 615.492 14.4991 615.492 21.2551V60.7428C615.492 67.4989 620.969 72.9758 627.725 72.9758H650.629C651.296 72.9758 651.836 73.516 651.836 74.1824V74.1824C651.836 74.8489 651.296 75.3891 650.629 75.3891H627.725C620.969 75.3891 615.492 80.866 615.492 87.622V127.11C615.492 133.866 620.969 139.343 627.725 139.343H651.595C659.297 139.343 668.684 139.343 668.684 106.521V88.1766C668.684 87.5119 669.223 86.9732 669.887 86.9732V86.9732C670.552 86.9732 671.091 87.5119 671.091 88.1766V129.523Z"/>
<path d="M777.398 140.549C777.398 141.216 776.858 141.756 776.191 141.756H731.912C731.245 141.756 730.705 141.216 730.705 140.549V140.549C730.705 139.883 731.245 139.343 731.912 139.343H740.333C745.65 139.343 749.96 135.032 749.96 129.715V87.622C749.96 80.866 744.483 75.3891 737.727 75.3891H707.076C700.32 75.3891 694.843 80.866 694.843 87.622V129.715C694.843 135.032 699.153 139.343 704.471 139.343H712.891C713.558 139.343 714.098 139.883 714.098 140.549V140.549C714.098 141.216 713.558 141.756 712.891 141.756H668.612C667.945 141.756 667.405 141.216 667.405 140.549V140.549C667.405 139.883 667.945 139.343 668.612 139.343H677.032C682.35 139.343 686.66 135.032 686.66 129.715V18.6496C686.66 13.3326 682.35 9.02224 677.032 9.02224H668.612C667.945 9.02224 667.405 8.48199 667.405 7.81557V7.81557C667.405 7.14914 667.945 6.6089 668.612 6.6089H712.891C713.558 6.6089 714.098 7.14914 714.098 7.81557V7.81557C714.098 8.48199 713.558 9.02224 712.891 9.02224H704.471C699.153 9.02224 694.843 13.3326 694.843 18.6496V60.7428C694.843 67.4989 700.32 72.9758 707.076 72.9758H737.727C744.483 72.9758 749.96 67.4989 749.96 60.7429V18.6496C749.96 13.3326 745.65 9.02224 740.333 9.02224H731.912C731.245 9.02224 730.705 8.48199 730.705 7.81557V7.81557C730.705 7.14914 731.245 6.6089 731.912 6.6089H776.191C776.858 6.6089 777.398 7.14914 777.398 7.81557V7.81557C777.398 8.48199 776.858 9.02224 776.191 9.02224H767.771C762.454 9.02224 758.143 13.3326 758.143 18.6496V129.715C758.143 135.032 762.454 139.343 767.771 139.343H776.191C776.858 139.343 777.398 139.883 777.398 140.549V140.549Z"/>
<path d="M882.66 140.549C882.66 141.216 882.12 141.756 881.453 141.756H837.174C836.507 141.756 835.967 141.216 835.967 140.549V140.549C835.967 139.883 836.507 139.343 837.174 139.343H845.595C850.912 139.343 855.222 135.032 855.222 129.715V74.3621C855.222 61.7535 838.456 57.3895 832.308 68.3981L801.442 123.676C800.565 125.245 800.105 127.013 800.105 128.811V129.715C800.105 135.032 804.415 139.343 809.732 139.343H818.153C818.82 139.343 819.36 139.883 819.36 140.549V140.549C819.36 141.216 818.82 141.756 818.153 141.756H773.874C773.207 141.756 772.667 141.216 772.667 140.549V140.549C772.667 139.883 773.207 139.343 773.874 139.343H782.294C787.611 139.343 791.922 135.032 791.922 129.715V18.6496C791.922 13.3326 787.611 9.02224 782.294 9.02224H773.874C773.207 9.02224 772.667 8.48199 772.667 7.81557V7.81557C772.667 7.14914 773.207 6.6089 773.874 6.6089H818.153C818.82 6.6089 819.36 7.14914 819.36 7.81557V7.81557C819.36 8.48199 818.82 9.02224 818.153 9.02224H809.732C804.415 9.02224 800.105 13.3326 800.105 18.6496V74.0027C800.105 86.6114 816.871 90.9754 823.019 79.9667L853.885 24.6891C854.762 23.1196 855.222 21.3519 855.222 19.5543V18.6496C855.222 13.3326 850.912 9.02224 845.595 9.02224H837.174C836.507 9.02224 835.967 8.48199 835.967 7.81557V7.81557C835.967 7.14914 836.507 6.6089 837.174 6.6089H881.453C882.12 6.6089 882.66 7.14914 882.66 7.81557V7.81557C882.66 8.48199 882.12 9.02224 881.453 9.02224H873.033C867.716 9.02224 863.405 13.3326 863.405 18.6496V129.715C863.405 135.032 867.716 139.343 873.033 139.343H881.453C882.12 139.343 882.66 139.883 882.66 140.549V140.549Z"/>
<path d="M973.718 139.343C974.385 139.343 974.925 139.883 974.925 140.549V140.549C974.925 141.216 974.385 141.756 973.718 141.756H929.68C929.013 141.756 928.473 141.216 928.473 140.549V140.549C928.473 139.883 929.013 139.343 929.68 139.343H937.98C943.23 139.343 947.487 135.086 947.487 129.836V21.2551C947.487 14.4991 942.01 9.02224 935.254 9.02224H923.9C905.367 9.02224 895.018 27.8463 895.018 50.5317C895.018 70.4302 904.525 88.0035 919.216 91.6115C919.643 91.7164 920.273 91.4141 920.472 91.0217V91.0217C920.541 90.8844 920.582 90.7684 920.676 90.6466C923.991 86.3655 927.102 82.1082 932.083 79.4918C937.138 76.8371 942.433 76.8371 944.117 79.4918C946.043 82.3878 944.839 86.9731 939.544 90.3518C935.453 93.0065 929.436 94.4545 923.9 94.4545V94.4545C922.582 94.4545 921.389 95.23 920.853 96.4335L906.503 128.678C904.271 133.692 907.942 139.343 913.43 139.343H919.805C920.471 139.343 921.012 139.883 921.012 140.549V140.549C921.012 141.216 920.471 141.756 919.805 141.756H873.119C872.452 141.756 871.912 141.216 871.912 140.549V140.549C871.912 139.883 872.452 139.343 873.119 139.343H884.256C888.545 139.343 892.52 137.097 894.734 133.424L909.185 109.444C913.612 102.098 909.081 92.1097 902.539 86.5627C893.109 78.5664 886.834 65.4168 886.834 50.5317C886.834 26.3983 903.682 6.6089 923.9 6.6089H973.718C974.385 6.6089 974.925 7.14914 974.925 7.81557V7.81557C974.925 8.48199 974.385 9.02224 973.718 9.02224H965.298C959.981 9.02224 955.67 13.3326 955.67 18.6496V129.715C955.67 135.032 959.981 139.343 965.298 139.343H973.718ZM923.506 91.2661C923.267 91.5878 923.499 92.0412 923.9 92.0412V92.0412C928.954 92.0412 934.49 91.0758 938.1 88.4212C941.229 86.2491 943.155 82.8705 942.192 81.1811C940.988 79.4918 936.656 79.7331 933.046 81.6638C929.322 83.8605 925.597 88.4566 923.506 91.2661Z"/>
</mask>
<path d="M111.222 140.549C111.222 141.216 110.682 141.756 110.015 141.756H65.7359C65.0695 141.756 64.5292 141.216 64.5292 140.549V140.549C64.5292 139.883 65.0695 139.343 65.7359 139.343H74.1566C79.4737 139.343 83.784 135.032 83.784 129.715V21.2551C83.784 14.4991 78.3071 9.02224 71.5511 9.02224H44.7511C37.995 9.02224 32.5181 14.4991 32.5181 21.2551V129.715C32.5181 135.032 36.8285 139.343 42.1455 139.343H50.5663C51.2327 139.343 51.7729 139.883 51.7729 140.549V140.549C51.7729 141.216 51.2327 141.756 50.5663 141.756H6.28674C5.62032 141.756 5.08008 141.216 5.08008 140.549V140.549C5.08008 139.883 5.62032 139.343 6.28674 139.343H14.7075C20.0245 139.343 24.3349 135.032 24.3349 129.715V18.6496C24.3349 13.3326 20.0245 9.02224 14.7075 9.02224H6.28675C5.62032 9.02224 5.08008 8.48199 5.08008 7.81557V7.81557C5.08008 7.14914 5.62032 6.6089 6.28675 6.6089H110.015C110.682 6.6089 111.222 7.14914 111.222 7.81557V7.81557C111.222 8.48199 110.682 9.02224 110.015 9.02224H101.595C96.2776 9.02224 91.9673 13.3326 91.9673 18.6496V129.715C91.9673 135.032 96.2776 139.343 101.595 139.343H110.015C110.682 139.343 111.222 139.883 111.222 140.549V140.549Z" fill="#262696"/>
<path d="M159.056 143.687C126.805 143.687 108.753 112.555 108.753 74.1824C108.753 35.8103 126.805 4.67822 159.056 4.67822C191.067 4.67822 209.119 35.8103 209.119 74.1824C209.119 112.555 191.067 143.687 159.056 143.687ZM159.056 141.273C189.383 141.273 200.454 110.865 200.454 74.1824C200.454 37.4997 189.383 7.09156 159.056 7.09156C128.489 7.09156 117.418 37.4997 117.418 74.1824C117.418 110.865 128.489 141.273 159.056 141.273Z" fill="#262696"/>
<path d="M253.365 140.549C253.365 141.216 252.825 141.756 252.159 141.756H207.879C207.213 141.756 206.672 141.216 206.672 140.549V140.549C206.672 139.883 207.213 139.343 207.879 139.343H216.3C221.617 139.343 225.927 135.032 225.927 129.715V18.6496C225.927 13.3326 221.617 9.02224 216.3 9.02224H207.879C207.213 9.02224 206.672 8.48199 206.672 7.81557V7.81557C206.672 7.14914 207.213 6.6089 207.879 6.6089H273.625C280.381 6.6089 285.858 12.0858 285.858 18.8418V60.1883C285.858 60.8529 285.319 61.3917 284.654 61.3917V61.3917C283.99 61.3917 283.451 60.8529 283.451 60.1883V41.8437C283.451 9.02224 274.064 9.02224 266.362 9.02224H246.343C239.587 9.02224 234.11 14.4991 234.11 21.2551V129.715C234.11 135.032 238.421 139.343 243.738 139.343H252.159C252.825 139.343 253.365 139.883 253.365 140.549V140.549Z" fill="#262696"/>
<path d="M322.844 140.549C322.844 141.216 322.304 141.756 321.637 141.756H277.358C276.692 141.756 276.151 141.216 276.151 140.549V140.549C276.151 139.883 276.692 139.343 277.358 139.343H285.779C291.096 139.343 295.406 135.032 295.406 129.715V18.6496C295.406 13.3326 291.096 9.02224 285.779 9.02224H277.358C276.692 9.02224 276.151 8.48199 276.151 7.81557V7.81557C276.151 7.14914 276.692 6.6089 277.358 6.6089H327.417C349.801 6.6089 365.205 28.329 365.205 55.3584C365.205 82.3878 349.801 104.108 327.417 104.108C321.826 104.108 316.859 103.066 312.514 100.595C311.955 100.277 311.776 99.5656 312.087 99.0027V99.0027C312.435 98.3756 313.246 98.1874 313.863 98.5529C318.132 101.084 322.775 101.695 327.417 101.695C348.116 101.695 356.54 80.6985 356.54 55.3584C356.54 30.0183 348.116 9.02224 327.417 9.02224H315.822C309.066 9.02224 303.589 14.4991 303.589 21.2551V129.715C303.589 135.032 307.9 139.343 313.217 139.343H321.637C322.304 139.343 322.844 139.883 322.844 140.549V140.549Z" fill="#262696"/>
<path d="M397.939 132.458C398.274 131.913 398.503 131.314 398.695 130.704L401.77 120.968C402.555 118.481 402.526 115.808 401.685 113.34L368.744 16.6261C367.195 12.0793 362.925 9.02224 358.121 9.02224H348.106C347.44 9.02224 346.899 8.48199 346.899 7.81557V7.81557C346.899 7.14914 347.44 6.6089 348.106 6.6089H392.867C393.533 6.6089 394.074 7.14914 394.074 7.81557V7.81557C394.074 8.48199 393.533 9.02224 392.867 9.02224H386.027C380.522 9.02224 376.644 14.4254 378.419 19.6364C384.014 36.0669 389.762 52.6498 395.458 69.1801C399.286 80.2908 415.114 80.2158 418.795 69.0558L435.1 19.6341C436.824 14.4064 432.931 9.02224 427.426 9.02224H420.552C419.886 9.02224 419.346 8.48199 419.346 7.81557V7.81557C419.346 7.14914 419.886 6.6089 420.552 6.6089H459.296C459.962 6.6089 460.503 7.14914 460.503 7.81557V7.81557C460.503 8.48199 459.962 9.02224 459.296 9.02224H449.335C444.51 9.02224 440.231 12.1212 438.719 16.7034C426.215 54.6124 412.986 93.6307 400.813 131.379C398.887 137.412 393.592 141.756 387.094 141.756C384.434 141.756 379.938 140.528 377.364 138.261C376.974 137.918 376.914 137.348 377.166 136.893V136.893C377.557 136.186 378.519 136.053 379.159 136.547C382.065 138.788 385.409 139.343 387.094 139.343C391.112 139.343 395.752 136.021 397.939 132.458Z" fill="#262696"/>
<path d="M595.109 140.549C595.109 141.216 594.569 141.756 593.903 141.756H548.66C547.994 141.756 547.454 141.216 547.454 140.549V140.549C547.454 139.883 547.994 139.343 548.66 139.343H555.048C560.537 139.343 564.21 133.7 561.962 128.692C556.309 116.098 550.512 103.456 544.792 90.8399C540.66 81.725 527.9 81.0539 522.893 89.7193L519.009 96.4411C517.934 98.3016 517.368 100.412 517.368 102.561V129.715C517.368 135.032 521.679 139.343 526.996 139.343H535.416C536.083 139.343 536.623 139.883 536.623 140.549V140.549C536.623 141.216 536.083 141.756 535.416 141.756H491.378C490.711 141.756 490.171 141.216 490.171 140.549V140.549C490.171 139.883 490.711 139.343 491.378 139.343H499.678C504.928 139.343 509.185 135.086 509.185 129.836V102.522C509.185 100.398 508.632 98.3107 507.58 96.4653L503.757 89.7563C498.805 81.0678 486.087 81.6688 481.977 90.7855L464.893 128.679C462.638 133.681 466.296 139.343 471.783 139.343H478.133C478.8 139.343 479.34 139.883 479.34 140.549V140.549C479.34 141.216 478.8 141.756 478.133 141.756H432.891C432.225 141.756 431.684 141.216 431.684 140.549V140.549C431.684 139.883 432.225 139.343 432.891 139.343H443.239C447.78 139.343 451.9 136.683 453.769 132.544L483.968 65.6831C485.595 62.0815 485.382 57.9158 483.395 54.4993L460.491 15.1017C458.303 11.338 454.278 9.02224 449.924 9.02224H438.908C438.242 9.02224 437.702 8.48199 437.702 7.81557V7.81557C437.702 7.14914 438.242 6.6089 438.908 6.6089H477.893C478.559 6.6089 479.099 7.14914 479.099 7.81557V7.81557C479.099 8.48199 478.559 9.02224 477.893 9.02224H472.162C466.808 9.02224 463.471 14.8306 466.158 19.4609C472.943 31.1485 479.66 42.8052 486.362 54.4647C492.605 65.3266 509.185 60.9067 509.185 48.3784V18.5293C509.185 13.2787 504.928 9.02224 499.678 9.02224H491.378C490.711 9.02224 490.171 8.48199 490.171 7.81557V7.81557C490.171 7.14914 490.711 6.6089 491.378 6.6089H535.416C536.083 6.6089 536.623 7.14914 536.623 7.81557V7.81557C536.623 8.48199 536.083 9.02224 535.416 9.02224H526.996C521.679 9.02224 517.368 13.3326 517.368 18.6496V48.5541C517.368 61.0528 533.902 65.5059 540.179 54.698L560.648 19.4575C563.337 14.8266 559.996 9.02224 554.641 9.02224H548.901C548.235 9.02224 547.694 8.48199 547.694 7.81557V7.81557C547.694 7.14914 548.235 6.6089 548.901 6.6089H587.645C588.311 6.6089 588.852 7.14914 588.852 7.81557V7.81557C588.852 8.48199 588.311 9.02224 587.645 9.02224H576.782C572.483 9.02224 568.508 11.309 566.347 15.0257L543.389 54.5162C541.408 57.9233 541.19 62.076 542.803 65.6718L572.757 132.439C574.642 136.64 578.817 139.343 583.421 139.343H593.903C594.569 139.343 595.109 139.883 595.109 140.549V140.549Z" fill="#262696"/>
<path d="M671.091 129.523C671.091 136.279 665.614 141.756 658.858 141.756H589.261C588.595 141.756 588.054 141.216 588.054 140.549V140.549C588.054 139.883 588.595 139.343 589.261 139.343H597.682C602.999 139.343 607.309 135.032 607.309 129.715V18.6496C607.309 13.3326 602.999 9.02224 597.682 9.02224H589.261C588.595 9.02224 588.054 8.48199 588.054 7.81557V7.81557C588.054 7.14914 588.595 6.6089 589.261 6.6089H658.858C665.614 6.6089 671.091 12.0858 671.091 18.8418V60.1883C671.091 60.8529 670.552 61.3917 669.887 61.3917V61.3917C669.223 61.3917 668.684 60.8529 668.684 60.1883V41.8437C668.684 9.02224 659.297 9.02224 651.595 9.02224H627.725C620.969 9.02224 615.492 14.4991 615.492 21.2551V60.7428C615.492 67.4989 620.969 72.9758 627.725 72.9758H650.629C651.296 72.9758 651.836 73.516 651.836 74.1824V74.1824C651.836 74.8489 651.296 75.3891 650.629 75.3891H627.725C620.969 75.3891 615.492 80.866 615.492 87.622V127.11C615.492 133.866 620.969 139.343 627.725 139.343H651.595C659.297 139.343 668.684 139.343 668.684 106.521V88.1766C668.684 87.5119 669.223 86.9732 669.887 86.9732V86.9732C670.552 86.9732 671.091 87.5119 671.091 88.1766V129.523Z" fill="#262696"/>
<path d="M777.398 140.549C777.398 141.216 776.858 141.756 776.191 141.756H731.912C731.245 141.756 730.705 141.216 730.705 140.549V140.549C730.705 139.883 731.245 139.343 731.912 139.343H740.333C745.65 139.343 749.96 135.032 749.96 129.715V87.622C749.96 80.866 744.483 75.3891 737.727 75.3891H707.076C700.32 75.3891 694.843 80.866 694.843 87.622V129.715C694.843 135.032 699.153 139.343 704.471 139.343H712.891C713.558 139.343 714.098 139.883 714.098 140.549V140.549C714.098 141.216 713.558 141.756 712.891 141.756H668.612C667.945 141.756 667.405 141.216 667.405 140.549V140.549C667.405 139.883 667.945 139.343 668.612 139.343H677.032C682.35 139.343 686.66 135.032 686.66 129.715V18.6496C686.66 13.3326 682.35 9.02224 677.032 9.02224H668.612C667.945 9.02224 667.405 8.48199 667.405 7.81557V7.81557C667.405 7.14914 667.945 6.6089 668.612 6.6089H712.891C713.558 6.6089 714.098 7.14914 714.098 7.81557V7.81557C714.098 8.48199 713.558 9.02224 712.891 9.02224H704.471C699.153 9.02224 694.843 13.3326 694.843 18.6496V60.7428C694.843 67.4989 700.32 72.9758 707.076 72.9758H737.727C744.483 72.9758 749.96 67.4989 749.96 60.7429V18.6496C749.96 13.3326 745.65 9.02224 740.333 9.02224H731.912C731.245 9.02224 730.705 8.48199 730.705 7.81557V7.81557C730.705 7.14914 731.245 6.6089 731.912 6.6089H776.191C776.858 6.6089 777.398 7.14914 777.398 7.81557V7.81557C777.398 8.48199 776.858 9.02224 776.191 9.02224H767.771C762.454 9.02224 758.143 13.3326 758.143 18.6496V129.715C758.143 135.032 762.454 139.343 767.771 139.343H776.191C776.858 139.343 777.398 139.883 777.398 140.549V140.549Z" fill="#262696"/>
<path d="M882.66 140.549C882.66 141.216 882.12 141.756 881.453 141.756H837.174C836.507 141.756 835.967 141.216 835.967 140.549V140.549C835.967 139.883 836.507 139.343 837.174 139.343H845.595C850.912 139.343 855.222 135.032 855.222 129.715V74.3621C855.222 61.7535 838.456 57.3895 832.308 68.3981L801.442 123.676C800.565 125.245 800.105 127.013 800.105 128.811V129.715C800.105 135.032 804.415 139.343 809.732 139.343H818.153C818.82 139.343 819.36 139.883 819.36 140.549V140.549C819.36 141.216 818.82 141.756 818.153 141.756H773.874C773.207 141.756 772.667 141.216 772.667 140.549V140.549C772.667 139.883 773.207 139.343 773.874 139.343H782.294C787.611 139.343 791.922 135.032 791.922 129.715V18.6496C791.922 13.3326 787.611 9.02224 782.294 9.02224H773.874C773.207 9.02224 772.667 8.48199 772.667 7.81557V7.81557C772.667 7.14914 773.207 6.6089 773.874 6.6089H818.153C818.82 6.6089 819.36 7.14914 819.36 7.81557V7.81557C819.36 8.48199 818.82 9.02224 818.153 9.02224H809.732C804.415 9.02224 800.105 13.3326 800.105 18.6496V74.0027C800.105 86.6114 816.871 90.9754 823.019 79.9667L853.885 24.6891C854.762 23.1196 855.222 21.3519 855.222 19.5543V18.6496C855.222 13.3326 850.912 9.02224 845.595 9.02224H837.174C836.507 9.02224 835.967 8.48199 835.967 7.81557V7.81557C835.967 7.14914 836.507 6.6089 837.174 6.6089H881.453C882.12 6.6089 882.66 7.14914 882.66 7.81557V7.81557C882.66 8.48199 882.12 9.02224 881.453 9.02224H873.033C867.716 9.02224 863.405 13.3326 863.405 18.6496V129.715C863.405 135.032 867.716 139.343 873.033 139.343H881.453C882.12 139.343 882.66 139.883 882.66 140.549V140.549Z" fill="#262696"/>
<path d="M973.718 139.343C974.385 139.343 974.925 139.883 974.925 140.549V140.549C974.925 141.216 974.385 141.756 973.718 141.756H929.68C929.013 141.756 928.473 141.216 928.473 140.549V140.549C928.473 139.883 929.013 139.343 929.68 139.343H937.98C943.23 139.343 947.487 135.086 947.487 129.836V21.2551C947.487 14.4991 942.01 9.02224 935.254 9.02224H923.9C905.367 9.02224 895.018 27.8463 895.018 50.5317C895.018 70.4302 904.525 88.0035 919.216 91.6115C919.643 91.7164 920.273 91.4141 920.472 91.0217V91.0217C920.541 90.8844 920.582 90.7684 920.676 90.6466C923.991 86.3655 927.102 82.1082 932.083 79.4918C937.138 76.8371 942.433 76.8371 944.117 79.4918C946.043 82.3878 944.839 86.9731 939.544 90.3518C935.453 93.0065 929.436 94.4545 923.9 94.4545V94.4545C922.582 94.4545 921.389 95.23 920.853 96.4335L906.503 128.678C904.271 133.692 907.942 139.343 913.43 139.343H919.805C920.471 139.343 921.012 139.883 921.012 140.549V140.549C921.012 141.216 920.471 141.756 919.805 141.756H873.119C872.452 141.756 871.912 141.216 871.912 140.549V140.549C871.912 139.883 872.452 139.343 873.119 139.343H884.256C888.545 139.343 892.52 137.097 894.734 133.424L909.185 109.444C913.612 102.098 909.081 92.1097 902.539 86.5627C893.109 78.5664 886.834 65.4168 886.834 50.5317C886.834 26.3983 903.682 6.6089 923.9 6.6089H973.718C974.385 6.6089 974.925 7.14914 974.925 7.81557V7.81557C974.925 8.48199 974.385 9.02224 973.718 9.02224H965.298C959.981 9.02224 955.67 13.3326 955.67 18.6496V129.715C955.67 135.032 959.981 139.343 965.298 139.343H973.718ZM923.506 91.2661C923.267 91.5878 923.499 92.0412 923.9 92.0412V92.0412C928.954 92.0412 934.49 91.0758 938.1 88.4212C941.229 86.2491 943.155 82.8705 942.192 81.1811C940.988 79.4918 936.656 79.7331 933.046 81.6638C929.322 83.8605 925.597 88.4566 923.506 91.2661Z" fill="#262696"/>
<path d="M111.222 140.549C111.222 141.216 110.682 141.756 110.015 141.756H65.7359C65.0695 141.756 64.5292 141.216 64.5292 140.549V140.549C64.5292 139.883 65.0695 139.343 65.7359 139.343H74.1566C79.4737 139.343 83.784 135.032 83.784 129.715V21.2551C83.784 14.4991 78.3071 9.02224 71.5511 9.02224H44.7511C37.995 9.02224 32.5181 14.4991 32.5181 21.2551V129.715C32.5181 135.032 36.8285 139.343 42.1455 139.343H50.5663C51.2327 139.343 51.7729 139.883 51.7729 140.549V140.549C51.7729 141.216 51.2327 141.756 50.5663 141.756H6.28674C5.62032 141.756 5.08008 141.216 5.08008 140.549V140.549C5.08008 139.883 5.62032 139.343 6.28674 139.343H14.7075C20.0245 139.343 24.3349 135.032 24.3349 129.715V18.6496C24.3349 13.3326 20.0245 9.02224 14.7075 9.02224H6.28675C5.62032 9.02224 5.08008 8.48199 5.08008 7.81557V7.81557C5.08008 7.14914 5.62032 6.6089 6.28675 6.6089H110.015C110.682 6.6089 111.222 7.14914 111.222 7.81557V7.81557C111.222 8.48199 110.682 9.02224 110.015 9.02224H101.595C96.2776 9.02224 91.9673 13.3326 91.9673 18.6496V129.715C91.9673 135.032 96.2776 139.343 101.595 139.343H110.015C110.682 139.343 111.222 139.883 111.222 140.549V140.549Z" stroke="#262696" stroke-width="8.56447" mask="url(#path-1-outside-1_585_256)"/>
<path d="M159.056 143.687C126.805 143.687 108.753 112.555 108.753 74.1824C108.753 35.8103 126.805 4.67822 159.056 4.67822C191.067 4.67822 209.119 35.8103 209.119 74.1824C209.119 112.555 191.067 143.687 159.056 143.687ZM159.056 141.273C189.383 141.273 200.454 110.865 200.454 74.1824C200.454 37.4997 189.383 7.09156 159.056 7.09156C128.489 7.09156 117.418 37.4997 117.418 74.1824C117.418 110.865 128.489 141.273 159.056 141.273Z" stroke="#262696" stroke-width="8.56447" mask="url(#path-1-outside-1_585_256)"/>
<path d="M253.365 140.549C253.365 141.216 252.825 141.756 252.159 141.756H207.879C207.213 141.756 206.672 141.216 206.672 140.549V140.549C206.672 139.883 207.213 139.343 207.879 139.343H216.3C221.617 139.343 225.927 135.032 225.927 129.715V18.6496C225.927 13.3326 221.617 9.02224 216.3 9.02224H207.879C207.213 9.02224 206.672 8.48199 206.672 7.81557V7.81557C206.672 7.14914 207.213 6.6089 207.879 6.6089H273.625C280.381 6.6089 285.858 12.0858 285.858 18.8418V60.1883C285.858 60.8529 285.319 61.3917 284.654 61.3917V61.3917C283.99 61.3917 283.451 60.8529 283.451 60.1883V41.8437C283.451 9.02224 274.064 9.02224 266.362 9.02224H246.343C239.587 9.02224 234.11 14.4991 234.11 21.2551V129.715C234.11 135.032 238.421 139.343 243.738 139.343H252.159C252.825 139.343 253.365 139.883 253.365 140.549V140.549Z" stroke="#262696" stroke-width="8.56447" mask="url(#path-1-outside-1_585_256)"/>
<path d="M322.844 140.549C322.844 141.216 322.304 141.756 321.637 141.756H277.358C276.692 141.756 276.151 141.216 276.151 140.549V140.549C276.151 139.883 276.692 139.343 277.358 139.343H285.779C291.096 139.343 295.406 135.032 295.406 129.715V18.6496C295.406 13.3326 291.096 9.02224 285.779 9.02224H277.358C276.692 9.02224 276.151 8.48199 276.151 7.81557V7.81557C276.151 7.14914 276.692 6.6089 277.358 6.6089H327.417C349.801 6.6089 365.205 28.329 365.205 55.3584C365.205 82.3878 349.801 104.108 327.417 104.108C321.826 104.108 316.859 103.066 312.514 100.595C311.955 100.277 311.776 99.5656 312.087 99.0027V99.0027C312.435 98.3756 313.246 98.1874 313.863 98.5529C318.132 101.084 322.775 101.695 327.417 101.695C348.116 101.695 356.54 80.6985 356.54 55.3584C356.54 30.0183 348.116 9.02224 327.417 9.02224H315.822C309.066 9.02224 303.589 14.4991 303.589 21.2551V129.715C303.589 135.032 307.9 139.343 313.217 139.343H321.637C322.304 139.343 322.844 139.883 322.844 140.549V140.549Z" stroke="#262696" stroke-width="8.56447" mask="url(#path-1-outside-1_585_256)"/>
<path d="M397.939 132.458C398.274 131.913 398.503 131.314 398.695 130.704L401.77 120.968C402.555 118.481 402.526 115.808 401.685 113.34L368.744 16.6261C367.195 12.0793 362.925 9.02224 358.121 9.02224H348.106C347.44 9.02224 346.899 8.48199 346.899 7.81557V7.81557C346.899 7.14914 347.44 6.6089 348.106 6.6089H392.867C393.533 6.6089 394.074 7.14914 394.074 7.81557V7.81557C394.074 8.48199 393.533 9.02224 392.867 9.02224H386.027C380.522 9.02224 376.644 14.4254 378.419 19.6364C384.014 36.0669 389.762 52.6498 395.458 69.1801C399.286 80.2908 415.114 80.2158 418.795 69.0558L435.1 19.6341C436.824 14.4064 432.931 9.02224 427.426 9.02224H420.552C419.886 9.02224 419.346 8.48199 419.346 7.81557V7.81557C419.346 7.14914 419.886 6.6089 420.552 6.6089H459.296C459.962 6.6089 460.503 7.14914 460.503 7.81557V7.81557C460.503 8.48199 459.962 9.02224 459.296 9.02224H449.335C444.51 9.02224 440.231 12.1212 438.719 16.7034C426.215 54.6124 412.986 93.6307 400.813 131.379C398.887 137.412 393.592 141.756 387.094 141.756C384.434 141.756 379.938 140.528 377.364 138.261C376.974 137.918 376.914 137.348 377.166 136.893V136.893C377.557 136.186 378.519 136.053 379.159 136.547C382.065 138.788 385.409 139.343 387.094 139.343C391.112 139.343 395.752 136.021 397.939 132.458Z" stroke="#262696" stroke-width="8.56447" mask="url(#path-1-outside-1_585_256)"/>
<path d="M595.109 140.549C595.109 141.216 594.569 141.756 593.903 141.756H548.66C547.994 141.756 547.454 141.216 547.454 140.549V140.549C547.454 139.883 547.994 139.343 548.66 139.343H555.048C560.537 139.343 564.21 133.7 561.962 128.692C556.309 116.098 550.512 103.456 544.792 90.8399C540.66 81.725 527.9 81.0539 522.893 89.7193L519.009 96.4411C517.934 98.3016 517.368 100.412 517.368 102.561V129.715C517.368 135.032 521.679 139.343 526.996 139.343H535.416C536.083 139.343 536.623 139.883 536.623 140.549V140.549C536.623 141.216 536.083 141.756 535.416 141.756H491.378C490.711 141.756 490.171 141.216 490.171 140.549V140.549C490.171 139.883 490.711 139.343 491.378 139.343H499.678C504.928 139.343 509.185 135.086 509.185 129.836V102.522C509.185 100.398 508.632 98.3107 507.58 96.4653L503.757 89.7563C498.805 81.0678 486.087 81.6688 481.977 90.7855L464.893 128.679C462.638 133.681 466.296 139.343 471.783 139.343H478.133C478.8 139.343 479.34 139.883 479.34 140.549V140.549C479.34 141.216 478.8 141.756 478.133 141.756H432.891C432.225 141.756 431.684 141.216 431.684 140.549V140.549C431.684 139.883 432.225 139.343 432.891 139.343H443.239C447.78 139.343 451.9 136.683 453.769 132.544L483.968 65.6831C485.595 62.0815 485.382 57.9158 483.395 54.4993L460.491 15.1017C458.303 11.338 454.278 9.02224 449.924 9.02224H438.908C438.242 9.02224 437.702 8.48199 437.702 7.81557V7.81557C437.702 7.14914 438.242 6.6089 438.908 6.6089H477.893C478.559 6.6089 479.099 7.14914 479.099 7.81557V7.81557C479.099 8.48199 478.559 9.02224 477.893 9.02224H472.162C466.808 9.02224 463.471 14.8306 466.158 19.4609C472.943 31.1485 479.66 42.8052 486.362 54.4647C492.605 65.3266 509.185 60.9067 509.185 48.3784V18.5293C509.185 13.2787 504.928 9.02224 499.678 9.02224H491.378C490.711 9.02224 490.171 8.48199 490.171 7.81557V7.81557C490.171 7.14914 490.711 6.6089 491.378 6.6089H535.416C536.083 6.6089 536.623 7.14914 536.623 7.81557V7.81557C536.623 8.48199 536.083 9.02224 535.416 9.02224H526.996C521.679 9.02224 517.368 13.3326 517.368 18.6496V48.5541C517.368 61.0528 533.902 65.5059 540.179 54.698L560.648 19.4575C563.337 14.8266 559.996 9.02224 554.641 9.02224H548.901C548.235 9.02224 547.694 8.48199 547.694 7.81557V7.81557C547.694 7.14914 548.235 6.6089 548.901 6.6089H587.645C588.311 6.6089 588.852 7.14914 588.852 7.81557V7.81557C588.852 8.48199 588.311 9.02224 587.645 9.02224H576.782C572.483 9.02224 568.508 11.309 566.347 15.0257L543.389 54.5162C541.408 57.9233 541.19 62.076 542.803 65.6718L572.757 132.439C574.642 136.64 578.817 139.343 583.421 139.343H593.903C594.569 139.343 595.109 139.883 595.109 140.549V140.549Z" stroke="#262696" stroke-width="8.56447" mask="url(#path-1-outside-1_585_256)"/>
<path d="M671.091 129.523C671.091 136.279 665.614 141.756 658.858 141.756H589.261C588.595 141.756 588.054 141.216 588.054 140.549V140.549C588.054 139.883 588.595 139.343 589.261 139.343H597.682C602.999 139.343 607.309 135.032 607.309 129.715V18.6496C607.309 13.3326 602.999 9.02224 597.682 9.02224H589.261C588.595 9.02224 588.054 8.48199 588.054 7.81557V7.81557C588.054 7.14914 588.595 6.6089 589.261 6.6089H658.858C665.614 6.6089 671.091 12.0858 671.091 18.8418V60.1883C671.091 60.8529 670.552 61.3917 669.887 61.3917V61.3917C669.223 61.3917 668.684 60.8529 668.684 60.1883V41.8437C668.684 9.02224 659.297 9.02224 651.595 9.02224H627.725C620.969 9.02224 615.492 14.4991 615.492 21.2551V60.7428C615.492 67.4989 620.969 72.9758 627.725 72.9758H650.629C651.296 72.9758 651.836 73.516 651.836 74.1824V74.1824C651.836 74.8489 651.296 75.3891 650.629 75.3891H627.725C620.969 75.3891 615.492 80.866 615.492 87.622V127.11C615.492 133.866 620.969 139.343 627.725 139.343H651.595C659.297 139.343 668.684 139.343 668.684 106.521V88.1766C668.684 87.5119 669.223 86.9732 669.887 86.9732V86.9732C670.552 86.9732 671.091 87.5119 671.091 88.1766V129.523Z" stroke="#262696" stroke-width="8.56447" mask="url(#path-1-outside-1_585_256)"/>
<path d="M777.398 140.549C777.398 141.216 776.858 141.756 776.191 141.756H731.912C731.245 141.756 730.705 141.216 730.705 140.549V140.549C730.705 139.883 731.245 139.343 731.912 139.343H740.333C745.65 139.343 749.96 135.032 749.96 129.715V87.622C749.96 80.866 744.483 75.3891 737.727 75.3891H707.076C700.32 75.3891 694.843 80.866 694.843 87.622V129.715C694.843 135.032 699.153 139.343 704.471 139.343H712.891C713.558 139.343 714.098 139.883 714.098 140.549V140.549C714.098 141.216 713.558 141.756 712.891 141.756H668.612C667.945 141.756 667.405 141.216 667.405 140.549V140.549C667.405 139.883 667.945 139.343 668.612 139.343H677.032C682.35 139.343 686.66 135.032 686.66 129.715V18.6496C686.66 13.3326 682.35 9.02224 677.032 9.02224H668.612C667.945 9.02224 667.405 8.48199 667.405 7.81557V7.81557C667.405 7.14914 667.945 6.6089 668.612 6.6089H712.891C713.558 6.6089 714.098 7.14914 714.098 7.81557V7.81557C714.098 8.48199 713.558 9.02224 712.891 9.02224H704.471C699.153 9.02224 694.843 13.3326 694.843 18.6496V60.7428C694.843 67.4989 700.32 72.9758 707.076 72.9758H737.727C744.483 72.9758 749.96 67.4989 749.96 60.7429V18.6496C749.96 13.3326 745.65 9.02224 740.333 9.02224H731.912C731.245 9.02224 730.705 8.48199 730.705 7.81557V7.81557C730.705 7.14914 731.245 6.6089 731.912 6.6089H776.191C776.858 6.6089 777.398 7.14914 777.398 7.81557V7.81557C777.398 8.48199 776.858 9.02224 776.191 9.02224H767.771C762.454 9.02224 758.143 13.3326 758.143 18.6496V129.715C758.143 135.032 762.454 139.343 767.771 139.343H776.191C776.858 139.343 777.398 139.883 777.398 140.549V140.549Z" stroke="#262696" stroke-width="8.56447" mask="url(#path-1-outside-1_585_256)"/>
<path d="M882.66 140.549C882.66 141.216 882.12 141.756 881.453 141.756H837.174C836.507 141.756 835.967 141.216 835.967 140.549V140.549C835.967 139.883 836.507 139.343 837.174 139.343H845.595C850.912 139.343 855.222 135.032 855.222 129.715V74.3621C855.222 61.7535 838.456 57.3895 832.308 68.3981L801.442 123.676C800.565 125.245 800.105 127.013 800.105 128.811V129.715C800.105 135.032 804.415 139.343 809.732 139.343H818.153C818.82 139.343 819.36 139.883 819.36 140.549V140.549C819.36 141.216 818.82 141.756 818.153 141.756H773.874C773.207 141.756 772.667 141.216 772.667 140.549V140.549C772.667 139.883 773.207 139.343 773.874 139.343H782.294C787.611 139.343 791.922 135.032 791.922 129.715V18.6496C791.922 13.3326 787.611 9.02224 782.294 9.02224H773.874C773.207 9.02224 772.667 8.48199 772.667 7.81557V7.81557C772.667 7.14914 773.207 6.6089 773.874 6.6089H818.153C818.82 6.6089 819.36 7.14914 819.36 7.81557V7.81557C819.36 8.48199 818.82 9.02224 818.153 9.02224H809.732C804.415 9.02224 800.105 13.3326 800.105 18.6496V74.0027C800.105 86.6114 816.871 90.9754 823.019 79.9667L853.885 24.6891C854.762 23.1196 855.222 21.3519 855.222 19.5543V18.6496C855.222 13.3326 850.912 9.02224 845.595 9.02224H837.174C836.507 9.02224 835.967 8.48199 835.967 7.81557V7.81557C835.967 7.14914 836.507 6.6089 837.174 6.6089H881.453C882.12 6.6089 882.66 7.14914 882.66 7.81557V7.81557C882.66 8.48199 882.12 9.02224 881.453 9.02224H873.033C867.716 9.02224 863.405 13.3326 863.405 18.6496V129.715C863.405 135.032 867.716 139.343 873.033 139.343H881.453C882.12 139.343 882.66 139.883 882.66 140.549V140.549Z" stroke="#262696" stroke-width="8.56447" mask="url(#path-1-outside-1_585_256)"/>
<path d="M973.718 139.343C974.385 139.343 974.925 139.883 974.925 140.549V140.549C974.925 141.216 974.385 141.756 973.718 141.756H929.68C929.013 141.756 928.473 141.216 928.473 140.549V140.549C928.473 139.883 929.013 139.343 929.68 139.343H937.98C943.23 139.343 947.487 135.086 947.487 129.836V21.2551C947.487 14.4991 942.01 9.02224 935.254 9.02224H923.9C905.367 9.02224 895.018 27.8463 895.018 50.5317C895.018 70.4302 904.525 88.0035 919.216 91.6115C919.643 91.7164 920.273 91.4141 920.472 91.0217V91.0217C920.541 90.8844 920.582 90.7684 920.676 90.6466C923.991 86.3655 927.102 82.1082 932.083 79.4918C937.138 76.8371 942.433 76.8371 944.117 79.4918C946.043 82.3878 944.839 86.9731 939.544 90.3518C935.453 93.0065 929.436 94.4545 923.9 94.4545V94.4545C922.582 94.4545 921.389 95.23 920.853 96.4335L906.503 128.678C904.271 133.692 907.942 139.343 913.43 139.343H919.805C920.471 139.343 921.012 139.883 921.012 140.549V140.549C921.012 141.216 920.471 141.756 919.805 141.756H873.119C872.452 141.756 871.912 141.216 871.912 140.549V140.549C871.912 139.883 872.452 139.343 873.119 139.343H884.256C888.545 139.343 892.52 137.097 894.734 133.424L909.185 109.444C913.612 102.098 909.081 92.1097 902.539 86.5627C893.109 78.5664 886.834 65.4168 886.834 50.5317C886.834 26.3983 903.682 6.6089 923.9 6.6089H973.718C974.385 6.6089 974.925 7.14914 974.925 7.81557V7.81557C974.925 8.48199 974.385 9.02224 973.718 9.02224H965.298C959.981 9.02224 955.67 13.3326 955.67 18.6496V129.715C955.67 135.032 959.981 139.343 965.298 139.343H973.718ZM923.506 91.2661C923.267 91.5878 923.499 92.0412 923.9 92.0412V92.0412C928.954 92.0412 934.49 91.0758 938.1 88.4212C941.229 86.2491 943.155 82.8705 942.192 81.1811C940.988 79.4918 936.656 79.7331 933.046 81.6638C929.322 83.8605 925.597 88.4566 923.506 91.2661Z" stroke="#262696" stroke-width="8.56447" mask="url(#path-1-outside-1_585_256)"/>
</svg>
