<svg width="3128" height="468" viewBox="0 0 3128 468" fill="none" xmlns="http://www.w3.org/2000/svg">
<path d="M158.014 460.712H1V452.618H65.7481V15.5683H1V7.47482H173.392C248.662 7.47482 300.46 80.3164 300.46 170.964C300.46 261.611 248.662 334.453 173.392 334.453C153.158 334.453 135.352 330.406 119.975 320.694L124.021 313.41C139.399 323.931 156.395 326.359 173.392 326.359C242.996 326.359 271.323 255.946 271.323 170.964C271.323 85.9819 242.996 15.5683 173.392 15.5683H93.2661V452.618H158.014V460.712ZM580.034 460.712H300.808V452.618H365.556V15.5683H300.808V7.47482H580.034V191.198H571.941V125.64C571.941 15.5683 540.376 15.5683 514.477 15.5683H393.074V230.046H515.286V238.14H393.074V452.618H514.477C540.376 452.618 571.941 452.618 571.941 342.546V276.989H580.034V460.712ZM991.741 460.712H833.108V452.618H897.856L860.626 334.453H682.569L645.339 452.618H710.087V460.712H571.688V452.618H636.436C682.569 306.935 731.13 146.683 777.263 1H786.166L926.993 452.618H991.741V460.712ZM858.198 326.359L771.597 47.133L684.997 326.359H858.198ZM1296.85 460.712H1139.84V452.618H1204.59V15.5683H1057.29V24.4712C1057.29 272.133 1028.96 467.186 966.639 467.186C957.736 467.186 939.121 462.33 931.027 453.427L935.074 446.143C945.595 456.665 958.545 459.093 965.02 459.093C1022.48 459.093 1049.19 268.895 1049.19 24.4712V15.5683H984.444V7.47482H1296.85V15.5683H1232.11V452.618H1296.85V460.712ZM1446.23 460.712H1280.31V452.618H1345.06V15.5683H1290.83V7.47482H1437.33V15.5683H1372.58V452.618H1446.23C1515.83 452.618 1558.73 408.104 1558.73 323.122C1558.73 238.14 1522.31 193.626 1452.7 193.626C1435.71 193.626 1418.71 196.054 1403.33 206.575L1399.29 199.291C1414.67 189.579 1432.47 185.532 1452.7 185.532C1527.97 185.532 1586.25 232.475 1586.25 323.122C1586.25 413.769 1521.5 460.712 1446.23 460.712ZM1923.53 460.712H1766.52V452.618H1831.27V238.14H1645.92V452.618H1710.67V460.712H1553.66V452.618H1618.41V15.5683H1553.66V7.47482H1710.67V15.5683H1645.92V230.046H1831.27V15.5683H1766.52V7.47482H1923.53V15.5683H1858.78V452.618H1923.53V460.712ZM2084.87 467.186C1976.42 467.186 1915.72 362.78 1915.72 234.093C1915.72 105.406 1976.42 1 2084.87 1C2192.52 1 2253.22 105.406 2253.22 234.093C2253.22 362.78 2192.52 467.186 2084.87 467.186ZM2084.87 459.093C2186.85 459.093 2224.08 357.115 2224.08 234.093C2224.08 111.072 2186.85 9.09351 2084.87 9.09351C1982.08 9.09351 1944.85 111.072 1944.85 234.093C1944.85 357.115 1982.08 459.093 2084.87 459.093ZM2560.64 276.989H2568.73C2568.73 384.633 2517.74 467.186 2422.24 467.186C2313.79 467.186 2253.08 362.78 2253.08 234.093C2253.08 105.406 2313.79 1 2422.24 1C2485.37 1 2527.45 35.8021 2550.12 91.6474C2554.97 87.6006 2560.64 79.5071 2560.64 70.6042V7.47482H2568.73V191.198H2560.64C2559.83 88.41 2512.08 9.09351 2422.24 9.09351C2319.45 9.09351 2282.22 111.072 2282.22 234.093C2282.22 357.115 2319.45 459.093 2422.24 459.093C2512.08 459.093 2559.83 379.777 2560.64 276.989ZM2776.34 460.712H2620.14V452.618H2684.89V15.5683H2620.95C2595.05 15.5683 2563.48 15.5683 2563.48 125.64V191.198H2555.39V7.47482H2841.09V191.198H2833V125.64C2833 15.5683 2801.43 15.5683 2775.53 15.5683H2712.4V452.618H2776.34V460.712ZM2986.84 460.712H2820.93V452.618H2885.67V15.5683H2831.45V7.47482H2977.94V15.5683H2913.19V452.618H2986.84C3056.45 452.618 3099.34 408.104 3099.34 323.122C3099.34 238.14 3062.92 193.626 2993.32 193.626C2976.32 193.626 2959.33 196.054 2943.95 206.575L2939.9 199.291C2955.28 189.579 2973.08 185.532 2993.32 185.532C3068.59 185.532 3126.86 232.475 3126.86 323.122C3126.86 413.769 3062.11 460.712 2986.84 460.712Z" stroke="#262696"/>
</svg>
