<svg width="939" height="160" viewBox="0 0 939 160" fill="none" xmlns="http://www.w3.org/2000/svg">
<path d="M103.144 84.8707H120.951C114.167 97.4484 106.183 106.776 96.9966 112.852C87.8107 118.788 76.8582 121.756 64.1392 121.756C55.2359 121.756 46.8979 120.201 39.1252 117.092C31.4938 113.983 24.8517 109.673 19.1988 104.161C13.5459 98.6496 9.09423 92.2194 5.84382 84.8707C2.59341 77.3806 0.968209 69.3253 0.968209 60.7046C0.968209 52.2253 2.59341 44.3112 5.84382 36.9625C9.09423 29.6137 13.4752 23.2542 18.9868 17.884C24.6397 12.3724 31.2112 8.06209 38.7012 4.953C46.3326 1.84391 54.4587 0.289373 63.0793 0.289373C76.2223 0.289373 87.952 3.6811 98.2685 10.4646C108.585 17.248 116.075 26.5046 120.739 38.2344H103.144C98.6218 30.603 92.8983 24.8088 85.9735 20.8517C79.19 16.7534 71.488 14.7042 62.8673 14.7042C56.3665 14.7042 50.2896 15.9055 44.6368 18.3079C39.1252 20.7104 34.3202 24.0315 30.2219 28.2712C26.1236 32.3695 22.8731 37.2451 20.4707 42.898C18.0682 48.5509 16.867 54.6277 16.867 61.1286C16.867 67.6294 18.0682 73.7062 20.4707 79.3591C22.8731 84.8707 26.1942 89.7463 30.4339 93.986C34.6735 98.0843 39.6198 101.335 45.2727 103.737C50.9256 106.14 57.0025 107.341 63.5033 107.341C71.8413 107.341 78.9781 105.645 84.9136 102.253C90.9904 98.8616 97.0673 93.0674 103.144 84.8707ZM123.592 119V3.04515H139.279V96.7418L209.869 3.04515H225.556V119H209.869V25.3034L139.279 119H123.592ZM233.277 119V3.04515H257.655L298.144 97.1657L338.633 3.04515H363.011V119H347.324V20.2158L304.927 119H291.36L248.964 20.2158V119H233.277ZM385.329 159.701L404.195 115.184L359.255 3.04515H376.425L413.098 95.4699L452.315 3.04515H469.062L402.075 159.701H385.329ZM435.176 119L484.992 3.04515H502.587L552.403 119H535.868L493.896 20.8517L451.711 119H435.176ZM612.495 57.9488V17.248H585.573C576.246 17.248 569.251 18.9439 564.587 22.3356C559.923 25.7274 557.592 30.815 557.592 37.5984C557.592 44.3819 559.923 49.4695 564.587 52.8612C569.251 56.253 576.246 57.9488 585.573 57.9488H612.495ZM536.393 119L569.887 70.8798C561.125 68.9013 554.2 64.9443 549.112 59.0087C544.166 53.0732 541.693 45.9364 541.693 37.5984C541.693 32.5108 542.611 27.8472 544.449 23.6075C546.427 19.3679 549.183 15.7641 552.716 12.7964C556.249 9.68729 560.418 7.28482 565.223 5.58895C570.169 3.89308 575.61 3.04515 581.546 3.04515H628.182V119H612.495V72.1517H586.845L554.2 119H536.393ZM635.789 119V3.04515H651.475V104.797H717.826V3.04515H733.513V104.797H752.379V145.71H741.568L735.845 119H635.789ZM748.579 119V3.04515H764.265V96.7418L834.856 3.04515H850.543V119H834.856V25.3034L764.265 119H748.579ZM922.918 57.9488V17.248H895.996C886.669 17.248 879.674 18.9439 875.01 22.3356C870.346 25.7274 868.015 30.815 868.015 37.5984C868.015 44.3819 870.346 49.4695 875.01 52.8612C879.674 56.253 886.669 57.9488 895.996 57.9488H922.918ZM846.816 119L880.31 70.8798C871.548 68.9013 864.623 64.9443 859.535 59.0087C854.589 53.0732 852.116 45.9364 852.116 37.5984C852.116 32.5108 853.034 27.8472 854.872 23.6075C856.85 19.3679 859.606 15.7641 863.139 12.7964C866.672 9.68729 870.841 7.28482 875.646 5.58895C880.592 3.89308 886.033 3.04515 891.969 3.04515H938.605V119H922.918V72.1517H897.268L864.623 119H846.816Z" fill="#262696"/>
</svg>
