<svg width="795" height="148" viewBox="0 0 795 148" fill="none" xmlns="http://www.w3.org/2000/svg">
<mask id="path-1-outside-1_585_250" maskUnits="userSpaceOnUse" x="-0.134766" y="0.678223" width="796" height="147" fill="black">
<rect fill="white" x="-0.134766" y="0.678223" width="796" height="147"/>
<path d="M76.5111 70.8364C76.5216 70.3094 76.9495 69.8803 77.4767 69.8803V69.8803C78.0068 69.8803 78.4371 70.3142 78.4307 70.8443C78.1294 95.8022 66.1044 114.814 43.8278 114.814C18.2059 114.814 3.86523 90.1483 3.86523 59.7462C3.86523 29.3441 18.2059 4.67822 43.8278 4.67822C56.688 4.67822 65.8519 10.7915 71.5646 20.9339C72.9541 23.4009 76.5244 23.9535 76.5244 21.1221V21.1221V7.16394C76.5244 6.63593 76.9524 6.20789 77.4804 6.20789V6.20789C78.0084 6.20789 78.4365 6.63593 78.4365 7.16394V48.6524C78.4365 49.1825 78.0068 49.6122 77.4767 49.6122V49.6122C76.9495 49.6122 76.5216 49.1831 76.5111 48.656C76.0344 24.8386 64.7725 6.5903 43.8278 6.5903C19.5443 6.5903 10.7487 30.6826 10.7487 59.7462C10.7487 88.8099 19.5443 112.902 43.8278 112.902C64.7725 112.902 76.0344 94.6538 76.5111 70.8364Z"/>
<path d="M168.657 112.328C168.657 112.857 168.229 113.285 167.701 113.285H132.519C131.991 113.285 131.563 112.857 131.563 112.328V112.328C131.563 111.8 131.991 111.372 132.519 111.372H139.211C143.435 111.372 146.859 107.948 146.859 103.724V69.5399C146.859 56.9387 130.109 52.5686 123.953 63.5637L104.136 98.9574C103.438 100.202 103.072 101.605 103.072 103.032V103.724C103.072 107.948 106.497 111.372 110.721 111.372H117.413C117.941 111.372 118.369 111.8 118.369 112.328V112.328C118.369 112.857 117.941 113.285 117.413 113.285H82.2308C81.7028 113.285 81.2747 112.857 81.2747 112.328V112.328C81.2747 111.8 81.7028 111.372 82.2308 111.372H88.9231C93.1471 111.372 96.5714 107.948 96.5714 103.724V15.7683C96.5714 11.5443 93.1471 8.11997 88.9231 8.11997H82.2308C81.7028 8.11997 81.2747 7.69194 81.2747 7.16393V7.16393C81.2747 6.63593 81.7028 6.20789 82.2308 6.20789H117.413C117.941 6.20789 118.369 6.63593 118.369 7.16393V7.16393C118.369 7.69194 117.941 8.11997 117.413 8.11997H110.721C106.497 8.11997 103.072 11.5442 103.072 15.7683V49.9525C103.072 62.5537 119.823 66.9238 125.979 55.9288L145.796 20.5351C146.493 19.2901 146.859 17.8872 146.859 16.4604V15.7683C146.859 11.5442 143.435 8.11997 139.211 8.11997H132.519C131.991 8.11997 131.563 7.69194 131.563 7.16393V7.16393C131.563 6.63593 131.991 6.20789 132.519 6.20789H167.701C168.229 6.20789 168.657 6.63593 168.657 7.16393V7.16393C168.657 7.69194 168.229 8.11997 167.701 8.11997H161.009C156.785 8.11997 153.36 11.5442 153.36 15.7683V103.724C153.36 107.948 156.785 111.372 161.009 111.372H167.701C168.229 111.372 168.657 111.8 168.657 112.328V112.328Z"/>
<path d="M282.3 112.328C282.3 112.857 281.872 113.285 281.344 113.285H246.353C245.825 113.285 245.397 112.857 245.397 112.328V112.328C245.397 111.8 245.825 111.372 246.353 111.372H253.046C257.27 111.372 260.694 107.948 260.694 103.724V69.5076C260.694 56.2277 242.506 52.4625 237.233 64.651L225.508 91.7575C225.278 92.2896 224.754 92.634 224.174 92.634V92.634C223.593 92.634 223.068 92.2884 222.839 91.7549L211.313 64.9663C206.06 52.7552 187.843 56.5076 187.843 69.8008V103.724C187.843 107.948 191.268 111.372 195.492 111.372H202.184C202.712 111.372 203.14 111.8 203.14 112.328V112.328C203.14 112.857 202.712 113.285 202.184 113.285H171.591C171.063 113.285 170.635 112.857 170.635 112.328V112.328C170.635 111.8 171.063 111.372 171.591 111.372H178.283C182.507 111.372 185.931 107.948 185.931 103.724V15.7683C185.931 11.5443 182.507 8.11997 178.283 8.11997H171.591C171.063 8.11997 170.635 7.69194 170.635 7.16393V7.16393C170.635 6.63593 171.063 6.20789 171.591 6.20789H185.201C190.059 6.20789 194.457 9.0823 196.406 13.5318L215.708 57.5886C220.006 67.3983 233.942 67.3402 238.158 57.495L256.944 13.6254C258.871 9.12574 263.294 6.20789 268.189 6.20789H281.344C281.872 6.20789 282.3 6.63593 282.3 7.16393V7.16393C282.3 7.69194 281.872 8.11997 281.344 8.11997H274.748C270.576 8.11997 267.195 11.5014 267.195 15.6727V103.82C267.195 107.991 270.576 111.372 274.748 111.372H281.344C281.872 111.372 282.3 111.8 282.3 112.328V112.328Z"/>
<path d="M317.876 106.088C318.223 105.55 318.451 104.947 318.644 104.337L320.771 97.6187C321.561 95.1262 321.531 92.4463 320.686 89.9721L294.793 14.156C293.56 10.5461 290.168 8.11997 286.353 8.11997H278.391C277.863 8.11997 277.435 7.69194 277.435 7.16393V7.16393C277.435 6.63593 277.863 6.20789 278.391 6.20789H313.956C314.484 6.20789 314.912 6.63593 314.912 7.16393V7.16393C314.912 7.69194 314.484 8.11997 313.956 8.11997H308.523C304.149 8.11997 301.069 12.4143 302.483 16.5529C306.123 27.2135 309.845 37.955 313.558 48.6881C317.397 59.7845 333.222 59.7045 336.909 48.5569L347.496 16.5512C348.87 12.3992 345.778 8.11997 341.405 8.11997H335.945C335.417 8.11997 334.989 7.69194 334.989 7.16393V7.16393C334.989 6.63593 335.417 6.20789 335.945 6.20789H366.729C367.257 6.20789 367.685 6.63593 367.685 7.16393V7.16393C367.685 7.69194 367.257 8.11997 366.729 8.11997H358.81C354.978 8.11997 351.579 10.5794 350.376 14.2176C340.443 44.2491 329.935 75.1589 320.266 105.063C318.736 109.843 314.529 113.285 309.367 113.285C307.255 113.285 303.684 112.312 301.638 110.517C301.328 110.244 301.28 109.791 301.481 109.43V109.43C301.791 108.87 302.553 108.765 303.06 109.155C305.369 110.933 308.028 111.372 309.367 111.372C312.495 111.372 316.097 108.845 317.876 106.088Z"/>
<path d="M444.49 112.328C444.49 112.857 444.062 113.285 443.534 113.285H408.351C407.823 113.285 407.395 112.857 407.395 112.328V112.328C407.395 111.8 407.823 111.372 408.351 111.372H415.044C419.268 111.372 422.692 107.948 422.692 103.724V20.3529C422.692 13.5968 417.215 8.11997 410.459 8.11997H389.995C388.834 8.11997 387.892 9.06165 387.892 10.2233V10.2233C387.892 68.733 381.2 114.814 366.477 114.814C364.539 114.814 360.655 113.841 358.56 112.043C358.246 111.774 358.199 111.321 358.399 110.959V110.959C358.71 110.4 359.471 110.295 359.976 110.689C362.247 112.463 364.756 112.902 366.094 112.902C379.67 112.902 385.98 67.9682 385.98 10.2233V10.2233C385.98 9.06165 385.038 8.11997 383.877 8.11997H371.639C371.111 8.11997 370.683 7.69194 370.683 7.16393V7.16393C370.683 6.63593 371.111 6.20789 371.639 6.20789H443.534C444.062 6.20789 444.49 6.63593 444.49 7.16393V7.16393C444.49 7.69194 444.062 8.11997 443.534 8.11997H436.841C432.617 8.11997 429.193 11.5442 429.193 15.7683V103.724C429.193 107.948 432.617 111.372 436.841 111.372H443.534C444.062 111.372 444.49 111.8 444.49 112.328V112.328Z"/>
<path d="M524.331 111.372C524.859 111.372 525.287 111.8 525.287 112.328V112.328C525.287 112.857 524.859 113.285 524.331 113.285H489.34C488.812 113.285 488.384 112.857 488.384 112.328V112.328C488.384 111.8 488.812 111.372 489.34 111.372H495.937C500.108 111.372 503.49 107.991 503.49 103.82V20.3529C503.49 13.5968 498.013 8.11997 491.257 8.11997H484.751C470.028 8.11997 461.806 23.0342 461.806 41.0078C461.806 56.7741 469.36 70.698 481.032 73.5556C481.37 73.6385 481.869 73.3989 482.027 73.0883V73.0883C482.083 72.9793 482.115 72.8871 482.19 72.7904C484.823 69.3987 487.295 66.0257 491.252 63.9528C495.268 61.8495 499.474 61.8495 500.813 63.9528C502.342 66.2473 501.386 69.8803 497.18 72.5572C493.929 74.6605 489.149 75.8077 484.751 75.8077V75.8077C483.704 75.8077 482.756 76.4233 482.329 77.3792L470.941 102.9C469.164 106.882 472.078 111.372 476.437 111.372H481.501C482.029 111.372 482.457 111.8 482.457 112.328V112.328C482.457 112.857 482.029 113.285 481.501 113.285H444.406C443.878 113.285 443.45 112.857 443.45 112.328V112.328C443.45 111.8 443.878 111.372 444.406 111.372H453.23C456.654 111.372 459.829 109.581 461.6 106.651L471.14 90.8634C475.58 83.5152 470.969 73.2803 465.107 67.0072C459.127 60.6072 455.305 51.3346 455.305 41.0078C455.305 21.887 468.69 6.20789 484.751 6.20789H524.331C524.859 6.20789 525.287 6.63593 525.287 7.16393V7.16393C525.287 7.69194 524.859 8.11997 524.331 8.11997H517.639C513.415 8.11997 509.991 11.5442 509.991 15.7683V103.724C509.991 107.948 513.415 111.372 517.639 111.372H524.331ZM484.439 73.2804C484.249 73.5355 484.433 73.8956 484.751 73.8956V73.8956C488.767 73.8956 493.164 73.1308 496.032 71.0275C498.518 69.3066 500.048 66.6297 499.283 65.2913C498.327 63.9528 494.885 64.144 492.017 65.6737C489.059 67.4138 486.101 71.0543 484.439 73.2804Z"/>
<path d="M613.369 142.731C613.369 143.259 612.941 143.687 612.413 143.687V143.687C611.885 143.687 611.457 143.259 611.457 142.731V139.48C611.457 113.285 603.999 113.285 597.881 113.285H530.002C529.474 113.285 529.046 112.857 529.046 112.328V112.328C529.046 111.8 529.474 111.372 530.002 111.372H536.694C540.918 111.372 544.342 107.948 544.342 103.724V15.7683C544.342 11.5443 540.918 8.11997 536.694 8.11997H530.002C529.474 8.11997 529.046 7.69194 529.046 7.16393V7.16393C529.046 6.63593 529.474 6.20789 530.002 6.20789H565.184C565.712 6.20789 566.14 6.63593 566.14 7.16393V7.16393C566.14 7.69194 565.712 8.11997 565.184 8.11997H558.492C554.268 8.11997 550.843 11.5442 550.843 15.7683V99.1395C550.843 105.896 556.32 111.372 563.076 111.372H579.338C586.094 111.372 591.571 105.896 591.571 99.1395V15.7683C591.571 11.5443 588.147 8.11997 583.923 8.11997H577.23C576.702 8.11997 576.274 7.69194 576.274 7.16393V7.16393C576.274 6.63593 576.702 6.20789 577.23 6.20789H612.413C612.941 6.20789 613.369 6.63593 613.369 7.16393V7.16393C613.369 7.69194 612.941 8.11997 612.413 8.11997H605.72C601.496 8.11997 598.072 11.5442 598.072 15.7683V103.724C598.072 107.948 601.496 111.372 605.72 111.372V111.372C609.944 111.372 613.369 114.797 613.369 119.021V142.731Z"/>
<path d="M699.858 112.328C699.858 112.857 699.429 113.285 698.901 113.285H663.719C663.191 113.285 662.763 112.857 662.763 112.328V112.328C662.763 111.8 663.191 111.372 663.719 111.372H670.411C674.635 111.372 678.06 107.948 678.06 103.724V69.5399C678.06 56.9387 661.309 52.5686 655.153 63.5637L635.336 98.9574C634.639 100.202 634.273 101.605 634.273 103.032V103.724C634.273 107.948 637.697 111.372 641.921 111.372H648.614C649.142 111.372 649.57 111.8 649.57 112.328V112.328C649.57 112.857 649.142 113.285 648.614 113.285H613.431C612.903 113.285 612.475 112.857 612.475 112.328V112.328C612.475 111.8 612.903 111.372 613.431 111.372H620.124C624.348 111.372 627.772 107.948 627.772 103.724V15.7683C627.772 11.5443 624.348 8.11997 620.124 8.11997H613.431C612.903 8.11997 612.475 7.69194 612.475 7.16393V7.16393C612.475 6.63593 612.903 6.20789 613.431 6.20789H648.614C649.142 6.20789 649.57 6.63593 649.57 7.16393V7.16393C649.57 7.69194 649.142 8.11997 648.614 8.11997H641.921C637.697 8.11997 634.273 11.5442 634.273 15.7683V49.9525C634.273 62.5537 651.024 66.9238 657.18 55.9287L676.997 20.5351C677.694 19.2901 678.06 17.8872 678.06 16.4604V15.7683C678.06 11.5442 674.635 8.11997 670.411 8.11997H663.719C663.191 8.11997 662.763 7.69194 662.763 7.16393V7.16393C662.763 6.63593 663.191 6.20789 663.719 6.20789H698.901C699.429 6.20789 699.858 6.63593 699.858 7.16393V7.16393C699.858 7.69194 699.429 8.11997 698.901 8.11997H692.209C687.985 8.11997 684.561 11.5442 684.561 15.7683V103.724C684.561 107.948 687.985 111.372 692.209 111.372H698.901C699.429 111.372 699.858 111.8 699.858 112.328V112.328Z"/>
<path d="M791.13 112.328C791.13 112.857 790.702 113.285 790.174 113.285H754.991C754.463 113.285 754.035 112.857 754.035 112.328V112.328C754.035 111.8 754.463 111.372 754.991 111.372H761.683C765.908 111.372 769.332 107.948 769.332 103.724V69.5399C769.332 56.9387 752.581 52.5686 746.425 63.5637L726.608 98.9574C725.911 100.202 725.545 101.605 725.545 103.032V103.724C725.545 107.948 728.969 111.372 733.193 111.372H739.886C740.414 111.372 740.842 111.8 740.842 112.328V112.328C740.842 112.857 740.414 113.285 739.886 113.285H704.703C704.175 113.285 703.747 112.857 703.747 112.328V112.328C703.747 111.8 704.175 111.372 704.703 111.372H711.396C715.62 111.372 719.044 107.948 719.044 103.724V15.7683C719.044 11.5443 715.62 8.11997 711.396 8.11997H704.703C704.175 8.11997 703.747 7.69194 703.747 7.16393V7.16393C703.747 6.63593 704.175 6.20789 704.703 6.20789H739.886C740.414 6.20789 740.842 6.63593 740.842 7.16393V7.16393C740.842 7.69194 740.414 8.11997 739.886 8.11997H733.193C728.969 8.11997 725.545 11.5442 725.545 15.7683V49.9525C725.545 62.5537 742.296 66.9238 748.452 55.9287L768.269 20.5351C768.966 19.2901 769.332 17.8872 769.332 16.4604V15.7683C769.332 11.5442 765.908 8.11997 761.683 8.11997H754.991C754.463 8.11997 754.035 7.69194 754.035 7.16393V7.16393C754.035 6.63593 754.463 6.20789 754.991 6.20789H790.174C790.702 6.20789 791.13 6.63593 791.13 7.16393V7.16393C791.13 7.69194 790.702 8.11997 790.174 8.11997H783.481C779.257 8.11997 775.833 11.5442 775.833 15.7683V103.724C775.833 107.948 779.257 111.372 783.481 111.372H790.174C790.702 111.372 791.13 111.8 791.13 112.328V112.328Z"/>
</mask>
<path d="M76.5111 70.8364C76.5216 70.3094 76.9495 69.8803 77.4767 69.8803V69.8803C78.0068 69.8803 78.4371 70.3142 78.4307 70.8443C78.1294 95.8022 66.1044 114.814 43.8278 114.814C18.2059 114.814 3.86523 90.1483 3.86523 59.7462C3.86523 29.3441 18.2059 4.67822 43.8278 4.67822C56.688 4.67822 65.8519 10.7915 71.5646 20.9339C72.9541 23.4009 76.5244 23.9535 76.5244 21.1221V21.1221V7.16394C76.5244 6.63593 76.9524 6.20789 77.4804 6.20789V6.20789C78.0084 6.20789 78.4365 6.63593 78.4365 7.16394V48.6524C78.4365 49.1825 78.0068 49.6122 77.4767 49.6122V49.6122C76.9495 49.6122 76.5216 49.1831 76.5111 48.656C76.0344 24.8386 64.7725 6.5903 43.8278 6.5903C19.5443 6.5903 10.7487 30.6826 10.7487 59.7462C10.7487 88.8099 19.5443 112.902 43.8278 112.902C64.7725 112.902 76.0344 94.6538 76.5111 70.8364Z" fill="#262696"/>
<path d="M168.657 112.328C168.657 112.857 168.229 113.285 167.701 113.285H132.519C131.991 113.285 131.563 112.857 131.563 112.328V112.328C131.563 111.8 131.991 111.372 132.519 111.372H139.211C143.435 111.372 146.859 107.948 146.859 103.724V69.5399C146.859 56.9387 130.109 52.5686 123.953 63.5637L104.136 98.9574C103.438 100.202 103.072 101.605 103.072 103.032V103.724C103.072 107.948 106.497 111.372 110.721 111.372H117.413C117.941 111.372 118.369 111.8 118.369 112.328V112.328C118.369 112.857 117.941 113.285 117.413 113.285H82.2308C81.7028 113.285 81.2747 112.857 81.2747 112.328V112.328C81.2747 111.8 81.7028 111.372 82.2308 111.372H88.9231C93.1471 111.372 96.5714 107.948 96.5714 103.724V15.7683C96.5714 11.5443 93.1471 8.11997 88.9231 8.11997H82.2308C81.7028 8.11997 81.2747 7.69194 81.2747 7.16393V7.16393C81.2747 6.63593 81.7028 6.20789 82.2308 6.20789H117.413C117.941 6.20789 118.369 6.63593 118.369 7.16393V7.16393C118.369 7.69194 117.941 8.11997 117.413 8.11997H110.721C106.497 8.11997 103.072 11.5442 103.072 15.7683V49.9525C103.072 62.5537 119.823 66.9238 125.979 55.9288L145.796 20.5351C146.493 19.2901 146.859 17.8872 146.859 16.4604V15.7683C146.859 11.5442 143.435 8.11997 139.211 8.11997H132.519C131.991 8.11997 131.563 7.69194 131.563 7.16393V7.16393C131.563 6.63593 131.991 6.20789 132.519 6.20789H167.701C168.229 6.20789 168.657 6.63593 168.657 7.16393V7.16393C168.657 7.69194 168.229 8.11997 167.701 8.11997H161.009C156.785 8.11997 153.36 11.5442 153.36 15.7683V103.724C153.36 107.948 156.785 111.372 161.009 111.372H167.701C168.229 111.372 168.657 111.8 168.657 112.328V112.328Z" fill="#262696"/>
<path d="M282.3 112.328C282.3 112.857 281.872 113.285 281.344 113.285H246.353C245.825 113.285 245.397 112.857 245.397 112.328V112.328C245.397 111.8 245.825 111.372 246.353 111.372H253.046C257.27 111.372 260.694 107.948 260.694 103.724V69.5076C260.694 56.2277 242.506 52.4625 237.233 64.651L225.508 91.7575C225.278 92.2896 224.754 92.634 224.174 92.634V92.634C223.593 92.634 223.068 92.2884 222.839 91.7549L211.313 64.9663C206.06 52.7552 187.843 56.5076 187.843 69.8008V103.724C187.843 107.948 191.268 111.372 195.492 111.372H202.184C202.712 111.372 203.14 111.8 203.14 112.328V112.328C203.14 112.857 202.712 113.285 202.184 113.285H171.591C171.063 113.285 170.635 112.857 170.635 112.328V112.328C170.635 111.8 171.063 111.372 171.591 111.372H178.283C182.507 111.372 185.931 107.948 185.931 103.724V15.7683C185.931 11.5443 182.507 8.11997 178.283 8.11997H171.591C171.063 8.11997 170.635 7.69194 170.635 7.16393V7.16393C170.635 6.63593 171.063 6.20789 171.591 6.20789H185.201C190.059 6.20789 194.457 9.0823 196.406 13.5318L215.708 57.5886C220.006 67.3983 233.942 67.3402 238.158 57.495L256.944 13.6254C258.871 9.12574 263.294 6.20789 268.189 6.20789H281.344C281.872 6.20789 282.3 6.63593 282.3 7.16393V7.16393C282.3 7.69194 281.872 8.11997 281.344 8.11997H274.748C270.576 8.11997 267.195 11.5014 267.195 15.6727V103.82C267.195 107.991 270.576 111.372 274.748 111.372H281.344C281.872 111.372 282.3 111.8 282.3 112.328V112.328Z" fill="#262696"/>
<path d="M317.876 106.088C318.223 105.55 318.451 104.947 318.644 104.337L320.771 97.6187C321.561 95.1262 321.531 92.4463 320.686 89.9721L294.793 14.156C293.56 10.5461 290.168 8.11997 286.353 8.11997H278.391C277.863 8.11997 277.435 7.69194 277.435 7.16393V7.16393C277.435 6.63593 277.863 6.20789 278.391 6.20789H313.956C314.484 6.20789 314.912 6.63593 314.912 7.16393V7.16393C314.912 7.69194 314.484 8.11997 313.956 8.11997H308.523C304.149 8.11997 301.069 12.4143 302.483 16.5529C306.123 27.2135 309.845 37.955 313.558 48.6881C317.397 59.7845 333.222 59.7045 336.909 48.5569L347.496 16.5512C348.87 12.3992 345.778 8.11997 341.405 8.11997H335.945C335.417 8.11997 334.989 7.69194 334.989 7.16393V7.16393C334.989 6.63593 335.417 6.20789 335.945 6.20789H366.729C367.257 6.20789 367.685 6.63593 367.685 7.16393V7.16393C367.685 7.69194 367.257 8.11997 366.729 8.11997H358.81C354.978 8.11997 351.579 10.5794 350.376 14.2176C340.443 44.2491 329.935 75.1589 320.266 105.063C318.736 109.843 314.529 113.285 309.367 113.285C307.255 113.285 303.684 112.312 301.638 110.517C301.328 110.244 301.28 109.791 301.481 109.43V109.43C301.791 108.87 302.553 108.765 303.06 109.155C305.369 110.933 308.028 111.372 309.367 111.372C312.495 111.372 316.097 108.845 317.876 106.088Z" fill="#262696"/>
<path d="M444.49 112.328C444.49 112.857 444.062 113.285 443.534 113.285H408.351C407.823 113.285 407.395 112.857 407.395 112.328V112.328C407.395 111.8 407.823 111.372 408.351 111.372H415.044C419.268 111.372 422.692 107.948 422.692 103.724V20.3529C422.692 13.5968 417.215 8.11997 410.459 8.11997H389.995C388.834 8.11997 387.892 9.06165 387.892 10.2233V10.2233C387.892 68.733 381.2 114.814 366.477 114.814C364.539 114.814 360.655 113.841 358.56 112.043C358.246 111.774 358.199 111.321 358.399 110.959V110.959C358.71 110.4 359.471 110.295 359.976 110.689C362.247 112.463 364.756 112.902 366.094 112.902C379.67 112.902 385.98 67.9682 385.98 10.2233V10.2233C385.98 9.06165 385.038 8.11997 383.877 8.11997H371.639C371.111 8.11997 370.683 7.69194 370.683 7.16393V7.16393C370.683 6.63593 371.111 6.20789 371.639 6.20789H443.534C444.062 6.20789 444.49 6.63593 444.49 7.16393V7.16393C444.49 7.69194 444.062 8.11997 443.534 8.11997H436.841C432.617 8.11997 429.193 11.5442 429.193 15.7683V103.724C429.193 107.948 432.617 111.372 436.841 111.372H443.534C444.062 111.372 444.49 111.8 444.49 112.328V112.328Z" fill="#262696"/>
<path d="M524.331 111.372C524.859 111.372 525.287 111.8 525.287 112.328V112.328C525.287 112.857 524.859 113.285 524.331 113.285H489.34C488.812 113.285 488.384 112.857 488.384 112.328V112.328C488.384 111.8 488.812 111.372 489.34 111.372H495.937C500.108 111.372 503.49 107.991 503.49 103.82V20.3529C503.49 13.5968 498.013 8.11997 491.257 8.11997H484.751C470.028 8.11997 461.806 23.0342 461.806 41.0078C461.806 56.7741 469.36 70.698 481.032 73.5556C481.37 73.6385 481.869 73.3989 482.027 73.0883V73.0883C482.083 72.9793 482.115 72.8871 482.19 72.7904C484.823 69.3987 487.295 66.0257 491.252 63.9528C495.268 61.8495 499.474 61.8495 500.813 63.9528C502.342 66.2473 501.386 69.8803 497.18 72.5572C493.929 74.6605 489.149 75.8077 484.751 75.8077V75.8077C483.704 75.8077 482.756 76.4233 482.329 77.3792L470.941 102.9C469.164 106.882 472.078 111.372 476.437 111.372H481.501C482.029 111.372 482.457 111.8 482.457 112.328V112.328C482.457 112.857 482.029 113.285 481.501 113.285H444.406C443.878 113.285 443.45 112.857 443.45 112.328V112.328C443.45 111.8 443.878 111.372 444.406 111.372H453.23C456.654 111.372 459.829 109.581 461.6 106.651L471.14 90.8634C475.58 83.5152 470.969 73.2803 465.107 67.0072C459.127 60.6072 455.305 51.3346 455.305 41.0078C455.305 21.887 468.69 6.20789 484.751 6.20789H524.331C524.859 6.20789 525.287 6.63593 525.287 7.16393V7.16393C525.287 7.69194 524.859 8.11997 524.331 8.11997H517.639C513.415 8.11997 509.991 11.5442 509.991 15.7683V103.724C509.991 107.948 513.415 111.372 517.639 111.372H524.331ZM484.439 73.2804C484.249 73.5355 484.433 73.8956 484.751 73.8956V73.8956C488.767 73.8956 493.164 73.1308 496.032 71.0275C498.518 69.3066 500.048 66.6297 499.283 65.2913C498.327 63.9528 494.885 64.144 492.017 65.6737C489.059 67.4138 486.101 71.0543 484.439 73.2804Z" fill="#262696"/>
<path d="M613.369 142.731C613.369 143.259 612.941 143.687 612.413 143.687V143.687C611.885 143.687 611.457 143.259 611.457 142.731V139.48C611.457 113.285 603.999 113.285 597.881 113.285H530.002C529.474 113.285 529.046 112.857 529.046 112.328V112.328C529.046 111.8 529.474 111.372 530.002 111.372H536.694C540.918 111.372 544.342 107.948 544.342 103.724V15.7683C544.342 11.5443 540.918 8.11997 536.694 8.11997H530.002C529.474 8.11997 529.046 7.69194 529.046 7.16393V7.16393C529.046 6.63593 529.474 6.20789 530.002 6.20789H565.184C565.712 6.20789 566.14 6.63593 566.14 7.16393V7.16393C566.14 7.69194 565.712 8.11997 565.184 8.11997H558.492C554.268 8.11997 550.843 11.5442 550.843 15.7683V99.1395C550.843 105.896 556.32 111.372 563.076 111.372H579.338C586.094 111.372 591.571 105.896 591.571 99.1395V15.7683C591.571 11.5443 588.147 8.11997 583.923 8.11997H577.23C576.702 8.11997 576.274 7.69194 576.274 7.16393V7.16393C576.274 6.63593 576.702 6.20789 577.23 6.20789H612.413C612.941 6.20789 613.369 6.63593 613.369 7.16393V7.16393C613.369 7.69194 612.941 8.11997 612.413 8.11997H605.72C601.496 8.11997 598.072 11.5442 598.072 15.7683V103.724C598.072 107.948 601.496 111.372 605.72 111.372V111.372C609.944 111.372 613.369 114.797 613.369 119.021V142.731Z" fill="#262696"/>
<path d="M699.858 112.328C699.858 112.857 699.429 113.285 698.901 113.285H663.719C663.191 113.285 662.763 112.857 662.763 112.328V112.328C662.763 111.8 663.191 111.372 663.719 111.372H670.411C674.635 111.372 678.06 107.948 678.06 103.724V69.5399C678.06 56.9387 661.309 52.5686 655.153 63.5637L635.336 98.9574C634.639 100.202 634.273 101.605 634.273 103.032V103.724C634.273 107.948 637.697 111.372 641.921 111.372H648.614C649.142 111.372 649.57 111.8 649.57 112.328V112.328C649.57 112.857 649.142 113.285 648.614 113.285H613.431C612.903 113.285 612.475 112.857 612.475 112.328V112.328C612.475 111.8 612.903 111.372 613.431 111.372H620.124C624.348 111.372 627.772 107.948 627.772 103.724V15.7683C627.772 11.5443 624.348 8.11997 620.124 8.11997H613.431C612.903 8.11997 612.475 7.69194 612.475 7.16393V7.16393C612.475 6.63593 612.903 6.20789 613.431 6.20789H648.614C649.142 6.20789 649.57 6.63593 649.57 7.16393V7.16393C649.57 7.69194 649.142 8.11997 648.614 8.11997H641.921C637.697 8.11997 634.273 11.5442 634.273 15.7683V49.9525C634.273 62.5537 651.024 66.9238 657.18 55.9287L676.997 20.5351C677.694 19.2901 678.06 17.8872 678.06 16.4604V15.7683C678.06 11.5442 674.635 8.11997 670.411 8.11997H663.719C663.191 8.11997 662.763 7.69194 662.763 7.16393V7.16393C662.763 6.63593 663.191 6.20789 663.719 6.20789H698.901C699.429 6.20789 699.858 6.63593 699.858 7.16393V7.16393C699.858 7.69194 699.429 8.11997 698.901 8.11997H692.209C687.985 8.11997 684.561 11.5442 684.561 15.7683V103.724C684.561 107.948 687.985 111.372 692.209 111.372H698.901C699.429 111.372 699.858 111.8 699.858 112.328V112.328Z" fill="#262696"/>
<path d="M791.13 112.328C791.13 112.857 790.702 113.285 790.174 113.285H754.991C754.463 113.285 754.035 112.857 754.035 112.328V112.328C754.035 111.8 754.463 111.372 754.991 111.372H761.683C765.908 111.372 769.332 107.948 769.332 103.724V69.5399C769.332 56.9387 752.581 52.5686 746.425 63.5637L726.608 98.9574C725.911 100.202 725.545 101.605 725.545 103.032V103.724C725.545 107.948 728.969 111.372 733.193 111.372H739.886C740.414 111.372 740.842 111.8 740.842 112.328V112.328C740.842 112.857 740.414 113.285 739.886 113.285H704.703C704.175 113.285 703.747 112.857 703.747 112.328V112.328C703.747 111.8 704.175 111.372 704.703 111.372H711.396C715.62 111.372 719.044 107.948 719.044 103.724V15.7683C719.044 11.5443 715.62 8.11997 711.396 8.11997H704.703C704.175 8.11997 703.747 7.69194 703.747 7.16393V7.16393C703.747 6.63593 704.175 6.20789 704.703 6.20789H739.886C740.414 6.20789 740.842 6.63593 740.842 7.16393V7.16393C740.842 7.69194 740.414 8.11997 739.886 8.11997H733.193C728.969 8.11997 725.545 11.5442 725.545 15.7683V49.9525C725.545 62.5537 742.296 66.9238 748.452 55.9287L768.269 20.5351C768.966 19.2901 769.332 17.8872 769.332 16.4604V15.7683C769.332 11.5442 765.908 8.11997 761.683 8.11997H754.991C754.463 8.11997 754.035 7.69194 754.035 7.16393V7.16393C754.035 6.63593 754.463 6.20789 754.991 6.20789H790.174C790.702 6.20789 791.13 6.63593 791.13 7.16393V7.16393C791.13 7.69194 790.702 8.11997 790.174 8.11997H783.481C779.257 8.11997 775.833 11.5442 775.833 15.7683V103.724C775.833 107.948 779.257 111.372 783.481 111.372H790.174C790.702 111.372 791.13 111.8 791.13 112.328V112.328Z" fill="#262696"/>
<path d="M76.5111 70.8364C76.5216 70.3094 76.9495 69.8803 77.4767 69.8803V69.8803C78.0068 69.8803 78.4371 70.3142 78.4307 70.8443C78.1294 95.8022 66.1044 114.814 43.8278 114.814C18.2059 114.814 3.86523 90.1483 3.86523 59.7462C3.86523 29.3441 18.2059 4.67822 43.8278 4.67822C56.688 4.67822 65.8519 10.7915 71.5646 20.9339C72.9541 23.4009 76.5244 23.9535 76.5244 21.1221V21.1221V7.16394C76.5244 6.63593 76.9524 6.20789 77.4804 6.20789V6.20789C78.0084 6.20789 78.4365 6.63593 78.4365 7.16394V48.6524C78.4365 49.1825 78.0068 49.6122 77.4767 49.6122V49.6122C76.9495 49.6122 76.5216 49.1831 76.5111 48.656C76.0344 24.8386 64.7725 6.5903 43.8278 6.5903C19.5443 6.5903 10.7487 30.6826 10.7487 59.7462C10.7487 88.8099 19.5443 112.902 43.8278 112.902C64.7725 112.902 76.0344 94.6538 76.5111 70.8364Z" stroke="#262696" stroke-width="7.64833" mask="url(#path-1-outside-1_585_250)"/>
<path d="M168.657 112.328C168.657 112.857 168.229 113.285 167.701 113.285H132.519C131.991 113.285 131.563 112.857 131.563 112.328V112.328C131.563 111.8 131.991 111.372 132.519 111.372H139.211C143.435 111.372 146.859 107.948 146.859 103.724V69.5399C146.859 56.9387 130.109 52.5686 123.953 63.5637L104.136 98.9574C103.438 100.202 103.072 101.605 103.072 103.032V103.724C103.072 107.948 106.497 111.372 110.721 111.372H117.413C117.941 111.372 118.369 111.8 118.369 112.328V112.328C118.369 112.857 117.941 113.285 117.413 113.285H82.2308C81.7028 113.285 81.2747 112.857 81.2747 112.328V112.328C81.2747 111.8 81.7028 111.372 82.2308 111.372H88.9231C93.1471 111.372 96.5714 107.948 96.5714 103.724V15.7683C96.5714 11.5443 93.1471 8.11997 88.9231 8.11997H82.2308C81.7028 8.11997 81.2747 7.69194 81.2747 7.16393V7.16393C81.2747 6.63593 81.7028 6.20789 82.2308 6.20789H117.413C117.941 6.20789 118.369 6.63593 118.369 7.16393V7.16393C118.369 7.69194 117.941 8.11997 117.413 8.11997H110.721C106.497 8.11997 103.072 11.5442 103.072 15.7683V49.9525C103.072 62.5537 119.823 66.9238 125.979 55.9288L145.796 20.5351C146.493 19.2901 146.859 17.8872 146.859 16.4604V15.7683C146.859 11.5442 143.435 8.11997 139.211 8.11997H132.519C131.991 8.11997 131.563 7.69194 131.563 7.16393V7.16393C131.563 6.63593 131.991 6.20789 132.519 6.20789H167.701C168.229 6.20789 168.657 6.63593 168.657 7.16393V7.16393C168.657 7.69194 168.229 8.11997 167.701 8.11997H161.009C156.785 8.11997 153.36 11.5442 153.36 15.7683V103.724C153.36 107.948 156.785 111.372 161.009 111.372H167.701C168.229 111.372 168.657 111.8 168.657 112.328V112.328Z" stroke="#262696" stroke-width="7.64833" mask="url(#path-1-outside-1_585_250)"/>
<path d="M282.3 112.328C282.3 112.857 281.872 113.285 281.344 113.285H246.353C245.825 113.285 245.397 112.857 245.397 112.328V112.328C245.397 111.8 245.825 111.372 246.353 111.372H253.046C257.27 111.372 260.694 107.948 260.694 103.724V69.5076C260.694 56.2277 242.506 52.4625 237.233 64.651L225.508 91.7575C225.278 92.2896 224.754 92.634 224.174 92.634V92.634C223.593 92.634 223.068 92.2884 222.839 91.7549L211.313 64.9663C206.06 52.7552 187.843 56.5076 187.843 69.8008V103.724C187.843 107.948 191.268 111.372 195.492 111.372H202.184C202.712 111.372 203.14 111.8 203.14 112.328V112.328C203.14 112.857 202.712 113.285 202.184 113.285H171.591C171.063 113.285 170.635 112.857 170.635 112.328V112.328C170.635 111.8 171.063 111.372 171.591 111.372H178.283C182.507 111.372 185.931 107.948 185.931 103.724V15.7683C185.931 11.5443 182.507 8.11997 178.283 8.11997H171.591C171.063 8.11997 170.635 7.69194 170.635 7.16393V7.16393C170.635 6.63593 171.063 6.20789 171.591 6.20789H185.201C190.059 6.20789 194.457 9.0823 196.406 13.5318L215.708 57.5886C220.006 67.3983 233.942 67.3402 238.158 57.495L256.944 13.6254C258.871 9.12574 263.294 6.20789 268.189 6.20789H281.344C281.872 6.20789 282.3 6.63593 282.3 7.16393V7.16393C282.3 7.69194 281.872 8.11997 281.344 8.11997H274.748C270.576 8.11997 267.195 11.5014 267.195 15.6727V103.82C267.195 107.991 270.576 111.372 274.748 111.372H281.344C281.872 111.372 282.3 111.8 282.3 112.328V112.328Z" stroke="#262696" stroke-width="7.64833" mask="url(#path-1-outside-1_585_250)"/>
<path d="M317.876 106.088C318.223 105.55 318.451 104.947 318.644 104.337L320.771 97.6187C321.561 95.1262 321.531 92.4463 320.686 89.9721L294.793 14.156C293.56 10.5461 290.168 8.11997 286.353 8.11997H278.391C277.863 8.11997 277.435 7.69194 277.435 7.16393V7.16393C277.435 6.63593 277.863 6.20789 278.391 6.20789H313.956C314.484 6.20789 314.912 6.63593 314.912 7.16393V7.16393C314.912 7.69194 314.484 8.11997 313.956 8.11997H308.523C304.149 8.11997 301.069 12.4143 302.483 16.5529C306.123 27.2135 309.845 37.955 313.558 48.6881C317.397 59.7845 333.222 59.7045 336.909 48.5569L347.496 16.5512C348.87 12.3992 345.778 8.11997 341.405 8.11997H335.945C335.417 8.11997 334.989 7.69194 334.989 7.16393V7.16393C334.989 6.63593 335.417 6.20789 335.945 6.20789H366.729C367.257 6.20789 367.685 6.63593 367.685 7.16393V7.16393C367.685 7.69194 367.257 8.11997 366.729 8.11997H358.81C354.978 8.11997 351.579 10.5794 350.376 14.2176C340.443 44.2491 329.935 75.1589 320.266 105.063C318.736 109.843 314.529 113.285 309.367 113.285C307.255 113.285 303.684 112.312 301.638 110.517C301.328 110.244 301.28 109.791 301.481 109.43V109.43C301.791 108.87 302.553 108.765 303.06 109.155C305.369 110.933 308.028 111.372 309.367 111.372C312.495 111.372 316.097 108.845 317.876 106.088Z" stroke="#262696" stroke-width="7.64833" mask="url(#path-1-outside-1_585_250)"/>
<path d="M444.49 112.328C444.49 112.857 444.062 113.285 443.534 113.285H408.351C407.823 113.285 407.395 112.857 407.395 112.328V112.328C407.395 111.8 407.823 111.372 408.351 111.372H415.044C419.268 111.372 422.692 107.948 422.692 103.724V20.3529C422.692 13.5968 417.215 8.11997 410.459 8.11997H389.995C388.834 8.11997 387.892 9.06165 387.892 10.2233V10.2233C387.892 68.733 381.2 114.814 366.477 114.814C364.539 114.814 360.655 113.841 358.56 112.043C358.246 111.774 358.199 111.321 358.399 110.959V110.959C358.71 110.4 359.471 110.295 359.976 110.689C362.247 112.463 364.756 112.902 366.094 112.902C379.67 112.902 385.98 67.9682 385.98 10.2233V10.2233C385.98 9.06165 385.038 8.11997 383.877 8.11997H371.639C371.111 8.11997 370.683 7.69194 370.683 7.16393V7.16393C370.683 6.63593 371.111 6.20789 371.639 6.20789H443.534C444.062 6.20789 444.49 6.63593 444.49 7.16393V7.16393C444.49 7.69194 444.062 8.11997 443.534 8.11997H436.841C432.617 8.11997 429.193 11.5442 429.193 15.7683V103.724C429.193 107.948 432.617 111.372 436.841 111.372H443.534C444.062 111.372 444.49 111.8 444.49 112.328V112.328Z" stroke="#262696" stroke-width="7.64833" mask="url(#path-1-outside-1_585_250)"/>
<path d="M524.331 111.372C524.859 111.372 525.287 111.8 525.287 112.328V112.328C525.287 112.857 524.859 113.285 524.331 113.285H489.34C488.812 113.285 488.384 112.857 488.384 112.328V112.328C488.384 111.8 488.812 111.372 489.34 111.372H495.937C500.108 111.372 503.49 107.991 503.49 103.82V20.3529C503.49 13.5968 498.013 8.11997 491.257 8.11997H484.751C470.028 8.11997 461.806 23.0342 461.806 41.0078C461.806 56.7741 469.36 70.698 481.032 73.5556C481.37 73.6385 481.869 73.3989 482.027 73.0883V73.0883C482.083 72.9793 482.115 72.8871 482.19 72.7904C484.823 69.3987 487.295 66.0257 491.252 63.9528C495.268 61.8495 499.474 61.8495 500.813 63.9528C502.342 66.2473 501.386 69.8803 497.18 72.5572C493.929 74.6605 489.149 75.8077 484.751 75.8077V75.8077C483.704 75.8077 482.756 76.4233 482.329 77.3792L470.941 102.9C469.164 106.882 472.078 111.372 476.437 111.372H481.501C482.029 111.372 482.457 111.8 482.457 112.328V112.328C482.457 112.857 482.029 113.285 481.501 113.285H444.406C443.878 113.285 443.45 112.857 443.45 112.328V112.328C443.45 111.8 443.878 111.372 444.406 111.372H453.23C456.654 111.372 459.829 109.581 461.6 106.651L471.14 90.8634C475.58 83.5152 470.969 73.2803 465.107 67.0072C459.127 60.6072 455.305 51.3346 455.305 41.0078C455.305 21.887 468.69 6.20789 484.751 6.20789H524.331C524.859 6.20789 525.287 6.63593 525.287 7.16393V7.16393C525.287 7.69194 524.859 8.11997 524.331 8.11997H517.639C513.415 8.11997 509.991 11.5442 509.991 15.7683V103.724C509.991 107.948 513.415 111.372 517.639 111.372H524.331ZM484.439 73.2804C484.249 73.5355 484.433 73.8956 484.751 73.8956V73.8956C488.767 73.8956 493.164 73.1308 496.032 71.0275C498.518 69.3066 500.048 66.6297 499.283 65.2913C498.327 63.9528 494.885 64.144 492.017 65.6737C489.059 67.4138 486.101 71.0543 484.439 73.2804Z" stroke="#262696" stroke-width="7.64833" mask="url(#path-1-outside-1_585_250)"/>
<path d="M613.369 142.731C613.369 143.259 612.941 143.687 612.413 143.687V143.687C611.885 143.687 611.457 143.259 611.457 142.731V139.48C611.457 113.285 603.999 113.285 597.881 113.285H530.002C529.474 113.285 529.046 112.857 529.046 112.328V112.328C529.046 111.8 529.474 111.372 530.002 111.372H536.694C540.918 111.372 544.342 107.948 544.342 103.724V15.7683C544.342 11.5443 540.918 8.11997 536.694 8.11997H530.002C529.474 8.11997 529.046 7.69194 529.046 7.16393V7.16393C529.046 6.63593 529.474 6.20789 530.002 6.20789H565.184C565.712 6.20789 566.14 6.63593 566.14 7.16393V7.16393C566.14 7.69194 565.712 8.11997 565.184 8.11997H558.492C554.268 8.11997 550.843 11.5442 550.843 15.7683V99.1395C550.843 105.896 556.32 111.372 563.076 111.372H579.338C586.094 111.372 591.571 105.896 591.571 99.1395V15.7683C591.571 11.5443 588.147 8.11997 583.923 8.11997H577.23C576.702 8.11997 576.274 7.69194 576.274 7.16393V7.16393C576.274 6.63593 576.702 6.20789 577.23 6.20789H612.413C612.941 6.20789 613.369 6.63593 613.369 7.16393V7.16393C613.369 7.69194 612.941 8.11997 612.413 8.11997H605.72C601.496 8.11997 598.072 11.5442 598.072 15.7683V103.724C598.072 107.948 601.496 111.372 605.72 111.372V111.372C609.944 111.372 613.369 114.797 613.369 119.021V142.731Z" stroke="#262696" stroke-width="7.64833" mask="url(#path-1-outside-1_585_250)"/>
<path d="M699.858 112.328C699.858 112.857 699.429 113.285 698.901 113.285H663.719C663.191 113.285 662.763 112.857 662.763 112.328V112.328C662.763 111.8 663.191 111.372 663.719 111.372H670.411C674.635 111.372 678.06 107.948 678.06 103.724V69.5399C678.06 56.9387 661.309 52.5686 655.153 63.5637L635.336 98.9574C634.639 100.202 634.273 101.605 634.273 103.032V103.724C634.273 107.948 637.697 111.372 641.921 111.372H648.614C649.142 111.372 649.57 111.8 649.57 112.328V112.328C649.57 112.857 649.142 113.285 648.614 113.285H613.431C612.903 113.285 612.475 112.857 612.475 112.328V112.328C612.475 111.8 612.903 111.372 613.431 111.372H620.124C624.348 111.372 627.772 107.948 627.772 103.724V15.7683C627.772 11.5443 624.348 8.11997 620.124 8.11997H613.431C612.903 8.11997 612.475 7.69194 612.475 7.16393V7.16393C612.475 6.63593 612.903 6.20789 613.431 6.20789H648.614C649.142 6.20789 649.57 6.63593 649.57 7.16393V7.16393C649.57 7.69194 649.142 8.11997 648.614 8.11997H641.921C637.697 8.11997 634.273 11.5442 634.273 15.7683V49.9525C634.273 62.5537 651.024 66.9238 657.18 55.9287L676.997 20.5351C677.694 19.2901 678.06 17.8872 678.06 16.4604V15.7683C678.06 11.5442 674.635 8.11997 670.411 8.11997H663.719C663.191 8.11997 662.763 7.69194 662.763 7.16393V7.16393C662.763 6.63593 663.191 6.20789 663.719 6.20789H698.901C699.429 6.20789 699.858 6.63593 699.858 7.16393V7.16393C699.858 7.69194 699.429 8.11997 698.901 8.11997H692.209C687.985 8.11997 684.561 11.5442 684.561 15.7683V103.724C684.561 107.948 687.985 111.372 692.209 111.372H698.901C699.429 111.372 699.858 111.8 699.858 112.328V112.328Z" stroke="#262696" stroke-width="7.64833" mask="url(#path-1-outside-1_585_250)"/>
<path d="M791.13 112.328C791.13 112.857 790.702 113.285 790.174 113.285H754.991C754.463 113.285 754.035 112.857 754.035 112.328V112.328C754.035 111.8 754.463 111.372 754.991 111.372H761.683C765.908 111.372 769.332 107.948 769.332 103.724V69.5399C769.332 56.9387 752.581 52.5686 746.425 63.5637L726.608 98.9574C725.911 100.202 725.545 101.605 725.545 103.032V103.724C725.545 107.948 728.969 111.372 733.193 111.372H739.886C740.414 111.372 740.842 111.8 740.842 112.328V112.328C740.842 112.857 740.414 113.285 739.886 113.285H704.703C704.175 113.285 703.747 112.857 703.747 112.328V112.328C703.747 111.8 704.175 111.372 704.703 111.372H711.396C715.62 111.372 719.044 107.948 719.044 103.724V15.7683C719.044 11.5443 715.62 8.11997 711.396 8.11997H704.703C704.175 8.11997 703.747 7.69194 703.747 7.16393V7.16393C703.747 6.63593 704.175 6.20789 704.703 6.20789H739.886C740.414 6.20789 740.842 6.63593 740.842 7.16393V7.16393C740.842 7.69194 740.414 8.11997 739.886 8.11997H733.193C728.969 8.11997 725.545 11.5442 725.545 15.7683V49.9525C725.545 62.5537 742.296 66.9238 748.452 55.9287L768.269 20.5351C768.966 19.2901 769.332 17.8872 769.332 16.4604V15.7683C769.332 11.5442 765.908 8.11997 761.683 8.11997H754.991C754.463 8.11997 754.035 7.69194 754.035 7.16393V7.16393C754.035 6.63593 754.463 6.20789 754.991 6.20789H790.174C790.702 6.20789 791.13 6.63593 791.13 7.16393V7.16393C791.13 7.69194 790.702 8.11997 790.174 8.11997H783.481C779.257 8.11997 775.833 11.5442 775.833 15.7683V103.724C775.833 107.948 779.257 111.372 783.481 111.372H790.174C790.702 111.372 791.13 111.8 791.13 112.328V112.328Z" stroke="#262696" stroke-width="7.64833" mask="url(#path-1-outside-1_585_250)"/>
</svg>
