<svg width="152" height="241" viewBox="0 0 152 241" fill="none" xmlns="http://www.w3.org/2000/svg">
<path d="M115.577 238.59H117.167V237V233.718V232.128H115.577H84.3506V8.87169H115.577C122.19 8.87169 128.813 8.92972 134.032 15.3786C139.4 22.0126 143.523 35.7019 143.523 64.055V96.8719V98.4619H145.113H148.394H149.984V96.8719V4V2.41H148.394H4H2.41V4V96.8719V98.4619H4H7.28169H8.87169V96.8719V64.055C8.87169 35.7019 12.9942 22.0126 18.3628 15.3786C23.5815 8.92972 30.2049 8.87169 36.8169 8.87169H68.0438V232.128H36.8169H35.2269V233.718V237V238.59H36.8169H115.577Z" fill="#262696" stroke="#262696" stroke-width="3.18"/>
</svg>
