<svg width="165" height="241" viewBox="0 0 165 241" fill="none" xmlns="http://www.w3.org/2000/svg">
<path d="M157.77 140.592H156.189L156.18 142.172C156.019 168.009 150.009 190.551 138.547 206.586C127.127 222.563 110.239 232.174 87.9918 232.174C62.8028 232.174 45.6971 219.857 34.7942 199.794C23.8324 179.623 19.1579 151.615 19.1579 120.5C19.1579 89.3852 23.8324 61.3774 34.7942 41.2059C45.6971 21.1427 62.8028 8.82611 87.9918 8.82611C110.239 8.82611 127.127 18.4369 138.547 34.4137C150.009 50.4493 156.019 72.9908 156.18 98.8279L156.189 100.408H157.77H161H162.59V98.8181V7.23611V5.64611H161H157.77H156.18V7.23611V38.3028C156.18 41.9924 154.721 45.0736 152.905 47.0105C141.175 19.8398 119.312 2.41 87.9918 2.41C60.5855 2.41 39.1217 15.7546 24.5704 37.208C10.051 58.6145 2.41 88.0759 2.41 120.5C2.41 152.924 10.051 182.386 24.5704 203.792C39.1217 225.245 60.5855 238.59 87.9918 238.59C112.254 238.59 130.98 228.145 143.59 210.792C156.16 193.493 162.59 169.429 162.59 142.182V140.592H161H157.77Z" fill="#262696" stroke="#262696" stroke-width="3.18"/>
</svg>
