<svg width="900" height="488" viewBox="0 0 900 488" fill="none" xmlns="http://www.w3.org/2000/svg">
<mask id="path-1-outside-1_585_251" maskUnits="userSpaceOnUse" x="-0.400391" y="0" width="900" height="488" fill="black">
<rect fill="white" x="-0.400391" width="900" height="488"/>
<path fill-rule="evenodd" clip-rule="evenodd" d="M609.586 291.36C609.604 289.537 608.124 288.042 606.301 288.042V288.042C604.486 288.042 603.013 289.524 602.984 291.339C601.344 395.67 552.692 474.306 460.854 474.306C394.117 474.306 354.342 432.806 334.158 370.076L332.691 365.364C322.062 330.089 317.371 288.472 317.371 243.944C317.371 116.916 355.546 13.5818 460.854 13.5818C553.642 13.5818 602.347 93.8538 603.02 199.795C603.02 199.823 603.043 199.846 603.071 199.846H603.115C603.118 199.846 603.121 199.849 603.121 199.853V199.853C603.121 199.856 603.124 199.859 603.128 199.859H606.412C608.23 199.859 609.703 198.386 609.703 196.568V134.041C609.703 20.1766 642.612 20.1766 668.939 20.1766H721.821C728.965 20.1766 734.757 25.9682 734.757 33.1125V461.383C734.757 468.527 728.965 474.319 721.821 474.319H672.23C670.412 474.319 668.939 475.792 668.939 477.61V477.61C668.939 479.427 670.412 480.901 672.23 480.901H823.611C825.428 480.901 826.902 479.427 826.902 477.61V477.61C826.902 475.792 825.428 474.319 823.611 474.319H774.02C766.875 474.319 761.084 468.527 761.084 461.383V33.1125C761.084 25.9682 766.875 20.1766 774.02 20.1766H826.902C853.229 20.1766 886.138 20.1766 886.138 134.041V196.568C886.138 198.386 887.611 199.859 889.428 199.859V199.859C891.246 199.859 892.719 198.386 892.719 196.568V26.5308C892.719 19.3865 886.928 13.5948 879.783 13.5948H609.609C609.605 13.5948 609.602 13.5919 609.602 13.5883V13.5883C609.602 13.5847 609.599 13.5818 609.595 13.5818H606.311C604.494 13.5818 603.02 15.0551 603.02 16.8726V76.7668C603.02 80.5828 602.329 84.1394 601.165 87.3116C598.347 94.9958 588.968 92.6812 585.277 85.3758C560.899 37.1219 519.091 7 460.854 7C378.2 7 322.666 67.6452 300.523 153.886C296.907 167.967 271.946 170.312 267.623 156.431L224.216 17.0511C223.576 14.9953 221.673 13.5948 219.52 13.5948V13.5948C217.367 13.5948 215.464 14.9953 214.824 17.0511L75.2481 465.23C73.5643 470.636 68.5599 474.319 62.8972 474.319H9.89049C8.07299 474.319 6.59961 475.792 6.59961 477.61V477.61C6.59961 479.428 8.07299 480.901 9.89049 480.901H142.184C144.002 480.901 145.475 479.428 145.475 477.61V477.61C145.475 475.792 144.002 474.319 142.184 474.319H97.2413C88.5176 474.319 82.2949 465.861 84.8919 457.532L114.999 360.983C116.684 355.579 121.687 351.898 127.348 351.898H291.288C296.949 351.898 301.953 355.579 303.638 360.983L333.745 457.532C336.342 465.861 330.119 474.319 321.395 474.319H276.452C274.635 474.319 273.161 475.792 273.161 477.61V477.61C273.161 479.428 274.635 480.901 276.452 480.901H461.332C461.336 480.901 461.337 480.895 461.333 480.894V480.894C461.329 480.893 461.33 480.887 461.334 480.887C556.803 480.616 608.55 399.441 609.586 291.36ZM281.269 345.316C289.986 345.316 296.208 336.87 293.623 328.544L221.672 96.822C217.905 84.6887 200.732 84.6888 196.964 96.822L125.014 328.544C122.429 336.87 128.651 345.316 137.368 345.316H281.269Z"/>
</mask>
<g filter="url(#filter0_iiiii_585_251)">
<path fill-rule="evenodd" clip-rule="evenodd" d="M609.586 291.36C609.604 289.537 608.124 288.042 606.301 288.042V288.042C604.486 288.042 603.013 289.524 602.984 291.339C601.344 395.67 552.692 474.306 460.854 474.306C394.117 474.306 354.342 432.806 334.158 370.076L332.691 365.364C322.062 330.089 317.371 288.472 317.371 243.944C317.371 116.916 355.546 13.5818 460.854 13.5818C553.642 13.5818 602.347 93.8538 603.02 199.795C603.02 199.823 603.043 199.846 603.071 199.846H603.115C603.118 199.846 603.121 199.849 603.121 199.853V199.853C603.121 199.856 603.124 199.859 603.128 199.859H606.412C608.23 199.859 609.703 198.386 609.703 196.568V134.041C609.703 20.1766 642.612 20.1766 668.939 20.1766H721.821C728.965 20.1766 734.757 25.9682 734.757 33.1125V461.383C734.757 468.527 728.965 474.319 721.821 474.319H672.23C670.412 474.319 668.939 475.792 668.939 477.61V477.61C668.939 479.427 670.412 480.901 672.23 480.901H823.611C825.428 480.901 826.902 479.427 826.902 477.61V477.61C826.902 475.792 825.428 474.319 823.611 474.319H774.02C766.875 474.319 761.084 468.527 761.084 461.383V33.1125C761.084 25.9682 766.875 20.1766 774.02 20.1766H826.902C853.229 20.1766 886.138 20.1766 886.138 134.041V196.568C886.138 198.386 887.611 199.859 889.428 199.859V199.859C891.246 199.859 892.719 198.386 892.719 196.568V26.5308C892.719 19.3865 886.928 13.5948 879.783 13.5948H609.609C609.605 13.5948 609.602 13.5919 609.602 13.5883V13.5883C609.602 13.5847 609.599 13.5818 609.595 13.5818H606.311C604.494 13.5818 603.02 15.0551 603.02 16.8726V76.7668C603.02 80.5828 602.329 84.1394 601.165 87.3116C598.347 94.9958 588.968 92.6812 585.277 85.3758C560.899 37.1219 519.091 7 460.854 7C378.2 7 322.666 67.6452 300.523 153.886C296.907 167.967 271.946 170.312 267.623 156.431L224.216 17.0511C223.576 14.9953 221.673 13.5948 219.52 13.5948V13.5948C217.367 13.5948 215.464 14.9953 214.824 17.0511L75.2481 465.23C73.5643 470.636 68.5599 474.319 62.8972 474.319H9.89049C8.07299 474.319 6.59961 475.792 6.59961 477.61V477.61C6.59961 479.428 8.07299 480.901 9.89049 480.901H142.184C144.002 480.901 145.475 479.428 145.475 477.61V477.61C145.475 475.792 144.002 474.319 142.184 474.319H97.2413C88.5176 474.319 82.2949 465.861 84.8919 457.532L114.999 360.983C116.684 355.579 121.687 351.898 127.348 351.898H291.288C296.949 351.898 301.953 355.579 303.638 360.983L333.745 457.532C336.342 465.861 330.119 474.319 321.395 474.319H276.452C274.635 474.319 273.161 475.792 273.161 477.61V477.61C273.161 479.428 274.635 480.901 276.452 480.901H461.332C461.336 480.901 461.337 480.895 461.333 480.894V480.894C461.329 480.893 461.33 480.887 461.334 480.887C556.803 480.616 608.55 399.441 609.586 291.36ZM281.269 345.316C289.986 345.316 296.208 336.87 293.623 328.544L221.672 96.822C217.905 84.6887 200.732 84.6888 196.964 96.822L125.014 328.544C122.429 336.87 128.651 345.316 137.368 345.316H281.269Z" fill="#262696"/>
</g>
<path d="M334.158 370.076L327.983 371.999L327.992 372.028L328.001 372.057L334.158 370.076ZM332.691 365.364L326.498 367.23L326.506 367.258L326.515 367.287L332.691 365.364ZM293.623 328.544L299.8 326.626L299.8 326.626L293.623 328.544ZM333.745 457.532L339.919 455.607L333.745 457.532ZM303.638 360.983L297.463 362.909L303.638 360.983ZM84.8919 457.532L78.7172 455.607L84.8919 457.532ZM75.2481 465.23L81.4235 467.153L75.2481 465.23ZM214.824 17.0511L220.999 18.9743L214.824 17.0511ZM300.523 153.886L306.788 155.494L300.523 153.886ZM267.623 156.431L261.448 158.354L267.623 156.431ZM601.165 87.3116L595.093 85.0843L601.165 87.3116ZM585.277 85.3758L591.05 82.4592L585.277 85.3758ZM603.02 199.795L596.552 199.836L603.02 199.795ZM196.964 96.822L190.787 94.9041L196.964 96.822ZM609.586 291.36L616.054 291.422L609.586 291.36ZM461.334 480.887L461.316 474.419L461.334 480.887ZM602.984 291.339L596.517 291.237L602.984 291.339ZM460.854 480.774C508.885 480.774 545.931 460.09 570.969 425.758C595.839 391.657 608.618 344.478 609.451 291.441L596.517 291.237C595.711 342.531 583.344 386.835 560.518 418.135C537.86 449.203 504.661 467.838 460.854 467.838V480.774ZM328.001 372.057C338.328 404.152 353.836 431.364 375.788 450.581C397.856 469.899 426.027 480.774 460.854 480.774V467.838C428.944 467.838 403.86 457.963 384.309 440.848C364.644 423.633 350.172 398.73 340.315 368.095L328.001 372.057ZM340.334 368.152L338.866 363.44L326.515 367.287L327.983 371.999L340.334 368.152ZM310.903 243.944C310.903 288.876 315.631 331.164 326.498 367.23L338.884 363.498C328.493 329.013 323.839 288.068 323.839 243.944H310.903ZM460.854 7.1138C405.543 7.1138 367.636 34.5082 343.941 78.0348C320.486 121.12 310.903 179.966 310.903 243.944H323.839C323.839 180.893 333.343 124.558 355.303 84.2197C377.022 44.3222 410.857 20.0497 460.854 20.0497V7.1138ZM609.488 199.754C609.146 145.913 596.609 97.9175 571.738 63.1942C546.697 28.2322 509.388 7.1138 460.854 7.1138V20.0497C505.108 20.0497 538.546 39.0674 561.222 70.7268C584.069 102.625 596.221 147.737 596.552 199.836L609.488 199.754ZM603.115 193.378H603.071V206.314H603.115V193.378ZM603.128 206.327H606.412V193.391H603.128V206.327ZM616.171 196.568V134.041H603.235V196.568H616.171ZM616.171 134.041C616.171 77.2456 624.481 50.8295 634.476 38.4785C643.862 26.8806 655.577 26.6446 668.939 26.6446V13.7086C655.973 13.7086 638.071 13.4726 624.42 30.3409C611.379 46.456 603.235 76.9723 603.235 134.041H616.171ZM668.939 26.6446H721.821V13.7086H668.939V26.6446ZM728.289 33.1125V461.383H741.225V33.1125H728.289ZM721.821 467.851H672.23V480.787H721.821V467.851ZM672.23 487.369H823.611V474.433H672.23V487.369ZM823.611 467.851H774.02V480.787H823.611V467.851ZM767.552 461.383V33.1125H754.616V461.383H767.552ZM774.02 26.6446H826.902V13.7086H774.02V26.6446ZM826.902 26.6446C840.263 26.6446 851.979 26.8806 861.364 38.4785C871.359 50.8295 879.67 77.2456 879.67 134.041H892.605C892.605 76.9723 884.461 46.456 871.42 30.3409C857.769 13.4726 839.867 13.7086 826.902 13.7086V26.6446ZM879.67 134.041V196.568H892.605V134.041H879.67ZM899.187 196.568V26.5308H886.251V196.568H899.187ZM879.783 7.12687H609.609V20.0628H879.783V7.12687ZM606.311 20.0497H609.595V7.1138H606.311V20.0497ZM609.488 76.7668V16.8726H596.552V76.7668H609.488ZM607.238 89.5389C608.654 85.6771 609.488 81.3676 609.488 76.7668H596.552C596.552 79.798 596.004 82.6018 595.093 85.0843L607.238 89.5389ZM460.854 13.468C516.386 13.468 556.101 41.9694 579.504 88.2923L591.05 82.4592C565.696 32.2745 521.797 0.532035 460.854 0.532035V13.468ZM306.788 155.494C328.504 70.9188 382.228 13.468 460.854 13.468V0.532035C374.171 0.532035 316.829 64.3716 294.258 152.277L306.788 155.494ZM273.799 154.508L230.392 15.1279L218.041 18.9743L261.448 158.354L273.799 154.508ZM208.648 15.1279L69.0727 463.306L81.4235 467.153L220.999 18.9743L208.648 15.1279ZM62.8972 467.851H9.89049V480.787H62.8972V467.851ZM9.89049 487.369H142.184V474.433H9.89049V487.369ZM142.184 467.851H97.2413V480.787H142.184V467.851ZM91.0666 459.458L121.173 362.909L108.824 359.058L78.7172 455.607L91.0666 459.458ZM127.348 358.366H291.288V345.43H127.348V358.366ZM297.463 362.909L327.57 459.458L339.919 455.607L309.813 359.058L297.463 362.909ZM321.395 467.851H276.452V480.787H321.395V467.851ZM276.452 487.369H461.332V474.433H276.452V487.369ZM603.118 291.298C602.609 344.421 589.631 390.277 565.67 422.709C541.867 454.927 506.973 474.289 461.316 474.419L461.353 487.355C511.165 487.214 549.878 465.853 576.075 430.396C602.114 395.152 615.527 346.38 616.054 291.422L603.118 291.298ZM215.495 98.74L287.446 330.462L299.8 326.626L227.849 94.904L215.495 98.74ZM131.191 330.462L203.141 98.74L190.787 94.9041L118.837 326.626L131.191 330.462ZM281.269 338.848H137.368V351.784H281.269V338.848ZM118.837 326.626C114.959 339.114 124.292 351.784 137.368 351.784V338.848C133.009 338.848 129.898 334.625 131.191 330.462L118.837 326.626ZM287.446 330.462C288.738 334.625 285.627 338.848 281.269 338.848V351.784C294.344 351.784 303.677 339.114 299.8 326.626L287.446 330.462ZM461.332 487.369C469.107 487.369 470.229 476.287 462.77 474.588L459.896 487.2C452.445 485.503 453.566 474.433 461.332 474.433V487.369ZM266.693 477.61C266.693 483 271.063 487.369 276.452 487.369V474.433C278.207 474.433 279.629 475.855 279.629 477.61H266.693ZM276.452 467.851C271.063 467.851 266.693 472.22 266.693 477.61H279.629C279.629 479.365 278.207 480.787 276.452 480.787V467.851ZM327.57 459.458C328.868 463.622 325.757 467.851 321.395 467.851V480.787C334.481 480.787 343.815 468.099 339.919 455.607L327.57 459.458ZM291.288 358.366C294.119 358.366 296.621 360.206 297.463 362.909L309.813 359.058C307.285 350.951 299.78 345.43 291.288 345.43V358.366ZM121.173 362.909C122.016 360.206 124.518 358.366 127.348 358.366V345.43C118.857 345.43 111.352 350.951 108.824 359.058L121.173 362.909ZM97.2413 467.851C92.8795 467.851 89.7681 463.622 91.0666 459.458L78.7172 455.607C74.8217 468.099 84.1557 480.787 97.2413 480.787V467.851ZM151.943 477.61C151.943 472.22 147.574 467.851 142.184 467.851V480.787C140.43 480.787 139.007 479.365 139.007 477.61H151.943ZM142.184 487.369C147.574 487.369 151.943 483 151.943 477.61H139.007C139.007 475.855 140.429 474.433 142.184 474.433V487.369ZM0.131645 477.61C0.131645 483 4.50083 487.369 9.89049 487.369V474.433C11.6451 474.433 13.0676 475.855 13.0676 477.61H0.131645ZM9.89049 467.851C4.50083 467.851 0.131645 472.22 0.131645 477.61H13.0676C13.0676 479.365 11.6451 480.787 9.89049 480.787V467.851ZM69.0727 463.306C68.2308 466.01 65.7286 467.851 62.8972 467.851V480.787C71.3912 480.787 78.8979 475.263 81.4235 467.153L69.0727 463.306ZM219.52 7.12687C214.535 7.12687 210.13 10.3688 208.648 15.1279L220.999 18.9743C220.797 19.6217 220.198 20.0628 219.52 20.0628V7.12687ZM606.311 7.1138C600.921 7.1138 596.552 11.483 596.552 16.8726H609.488C609.488 18.6273 608.066 20.0497 606.311 20.0497V7.1138ZM616.07 13.5883C616.07 10.0125 613.171 7.1138 609.595 7.1138V20.0497C606.027 20.0497 603.134 17.1569 603.134 13.5883H616.07ZM609.609 7.12687C613.179 7.12687 616.07 10.0217 616.07 13.5883H603.134C603.134 17.1621 606.031 20.0628 609.609 20.0628V7.12687ZM899.187 26.5308C899.187 15.8143 890.5 7.12687 879.783 7.12687V20.0628C883.356 20.0628 886.251 22.9586 886.251 26.5308H899.187ZM767.552 33.1125C767.552 29.5404 770.448 26.6446 774.02 26.6446V13.7086C763.303 13.7086 754.616 22.3961 754.616 33.1125H767.552ZM774.02 467.851C770.448 467.851 767.552 464.955 767.552 461.383H754.616C754.616 472.099 763.303 480.787 774.02 480.787V467.851ZM833.37 477.61C833.37 472.22 829 467.851 823.611 467.851V480.787C821.856 480.787 820.434 479.364 820.434 477.61H833.37ZM823.611 487.369C829 487.369 833.37 483 833.37 477.61H820.434C820.434 475.855 821.856 474.433 823.611 474.433V487.369ZM662.471 477.61C662.471 483 666.84 487.369 672.23 487.369V474.433C673.985 474.433 675.407 475.855 675.407 477.61H662.471ZM672.23 467.851C666.84 467.851 662.471 472.22 662.471 477.61H675.407C675.407 479.364 673.985 480.787 672.23 480.787V467.851ZM728.289 461.383C728.289 464.955 725.393 467.851 721.821 467.851V480.787C732.537 480.787 741.225 472.099 741.225 461.383H728.289ZM721.821 26.6446C725.393 26.6446 728.289 29.5404 728.289 33.1125H741.225C741.225 22.3961 732.537 13.7086 721.821 13.7086V26.6446ZM230.392 15.1279C228.91 10.3688 224.505 7.12687 219.52 7.12687V20.0628C218.842 20.0628 218.243 19.6217 218.041 18.9743L230.392 15.1279ZM606.412 206.327C611.802 206.327 616.171 201.958 616.171 196.568H603.235C603.235 194.814 604.657 193.391 606.412 193.391V206.327ZM294.258 152.277C293.389 155.662 289.467 158.72 283.794 159.199C278.091 159.681 274.677 157.329 273.799 154.508L261.448 158.354C264.892 169.414 276.121 172.83 284.883 172.089C293.674 171.346 304.041 166.191 306.788 155.494L294.258 152.277ZM596.653 199.853C596.653 203.428 599.552 206.327 603.128 206.327V193.391C606.696 193.391 609.589 196.284 609.589 199.853H596.653ZM603.115 206.314C599.546 206.314 596.653 203.421 596.653 199.853H609.589C609.589 196.277 606.69 193.378 603.115 193.378V206.314ZM595.093 85.0843C594.841 85.771 594.649 85.7493 594.843 85.64C594.997 85.5534 594.986 85.6478 594.621 85.5865C593.744 85.4388 592.09 84.518 591.05 82.4592L579.504 88.2923C582.155 93.539 587.036 97.4282 592.475 98.3432C595.269 98.8131 598.361 98.502 601.182 96.9165C604.043 95.3083 606.08 92.6943 607.238 89.5389L595.093 85.0843ZM596.552 199.836C596.574 203.357 599.423 206.314 603.071 206.314V193.378C606.662 193.378 609.466 196.29 609.488 199.754L596.552 199.836ZM889.428 206.327C894.818 206.327 899.187 201.958 899.187 196.568H886.251C886.251 194.814 887.674 193.391 889.428 193.391V206.327ZM227.849 94.904C222.198 76.704 196.438 76.7042 190.787 94.9041L203.141 98.74C205.025 92.6733 213.612 92.6734 215.495 98.74L227.849 94.904ZM606.301 294.51C604.524 294.51 603.101 293.067 603.118 291.298L616.054 291.422C616.106 286.007 611.725 281.574 606.301 281.574V294.51ZM879.67 196.568C879.67 201.958 884.039 206.327 889.428 206.327V193.391C891.183 193.391 892.605 194.814 892.605 196.568H879.67ZM462.77 474.588C464.422 474.964 465.966 476.007 466.914 477.627C467.793 479.13 467.928 480.725 467.7 482.017C467.248 484.57 464.988 487.345 461.353 487.355L461.316 474.419C457.676 474.43 455.414 477.207 454.961 479.764C454.733 481.058 454.868 482.654 455.748 484.158C456.696 485.78 458.242 486.824 459.896 487.2L462.77 474.588ZM606.301 281.574C600.872 281.574 596.6 285.972 596.517 291.237L609.451 291.441C609.426 293.076 608.1 294.51 606.301 294.51V281.574Z" fill="#262696" mask="url(#path-1-outside-1_585_251)"/>
<defs>
<filter id="filter0_iiiii_585_251" x="0.130859" y="0.532227" width="899.057" height="689.529" filterUnits="userSpaceOnUse" color-interpolation-filters="sRGB">
<feFlood flood-opacity="0" result="BackgroundImageFix"/>
<feBlend mode="normal" in="SourceGraphic" in2="BackgroundImageFix" result="shape"/>
<feColorMatrix in="SourceAlpha" type="matrix" values="0 0 0 0 0 0 0 0 0 0 0 0 0 0 0 0 0 0 127 0" result="hardAlpha"/>
<feOffset dy="31.403"/>
<feGaussianBlur stdDeviation="34.9716"/>
<feComposite in2="hardAlpha" operator="arithmetic" k2="-1" k3="1"/>
<feColorMatrix type="matrix" values="0 0 0 0 0.14902 0 0 0 0 0.14902 0 0 0 0 0.588235 0 0 0 0.98 0"/>
<feBlend mode="normal" in2="shape" result="effect1_innerShadow_585_251"/>
<feColorMatrix in="SourceAlpha" type="matrix" values="0 0 0 0 0 0 0 0 0 0 0 0 0 0 0 0 0 0 127 0" result="hardAlpha"/>
<feOffset dy="126.326"/>
<feGaussianBlur stdDeviation="63.1629"/>
<feComposite in2="hardAlpha" operator="arithmetic" k2="-1" k3="1"/>
<feColorMatrix type="matrix" values="0 0 0 0 0.14902 0 0 0 0 0.14902 0 0 0 0 0.588235 0 0 0 0.85 0"/>
<feBlend mode="normal" in2="effect1_innerShadow_585_251" result="effect2_innerShadow_585_251"/>
<feColorMatrix in="SourceAlpha" type="matrix" values="0 0 0 0 0 0 0 0 0 0 0 0 0 0 0 0 0 0 127 0" result="hardAlpha"/>
<feOffset dy="284.769"/>
<feGaussianBlur stdDeviation="85.6447"/>
<feComposite in2="hardAlpha" operator="arithmetic" k2="-1" k3="1"/>
<feColorMatrix type="matrix" values="0 0 0 0 0.14902 0 0 0 0 0.14902 0 0 0 0 0.588235 0 0 0 0.5 0"/>
<feBlend mode="normal" in2="effect2_innerShadow_585_251" result="effect3_innerShadow_585_251"/>
<feColorMatrix in="SourceAlpha" type="matrix" values="0 0 0 0 0 0 0 0 0 0 0 0 0 0 0 0 0 0 127 0" result="hardAlpha"/>
<feOffset dy="506.731"/>
<feGaussianBlur stdDeviation="101.346"/>
<feComposite in2="hardAlpha" operator="arithmetic" k2="-1" k3="1"/>
<feColorMatrix type="matrix" values="0 0 0 0 0.14902 0 0 0 0 0.14902 0 0 0 0 0.588235 0 0 0 0.15 0"/>
<feBlend mode="normal" in2="effect3_innerShadow_585_251" result="effect4_innerShadow_585_251"/>
<feColorMatrix in="SourceAlpha" type="matrix" values="0 0 0 0 0 0 0 0 0 0 0 0 0 0 0 0 0 0 127 0" result="hardAlpha"/>
<feOffset dy="791.499"/>
<feGaussianBlur stdDeviation="110.981"/>
<feComposite in2="hardAlpha" operator="arithmetic" k2="-1" k3="1"/>
<feColorMatrix type="matrix" values="0 0 0 0 0.14902 0 0 0 0 0.14902 0 0 0 0 0.588235 0 0 0 0.02 0"/>
<feBlend mode="normal" in2="effect4_innerShadow_585_251" result="effect5_innerShadow_585_251"/>
</filter>
</defs>
</svg>
